<svg xmlns="http://www.w3.org/2000/svg" viewBox="0 0 2761 2000" width="2761" height="2000" preserveAspectRatio="xMidYMid meet" style="width: 100%; height: 100%; transform: translate3d(0px, 0px, 0px);">
  <defs>
    <clipPath id="__lottie_element_499">
      <rect width="2761" height="2000" x="0" y="0"></rect>
    </clipPath>
    <clipPath id="__lottie_element_501">
      <path d="M0,0 L2761,0 L2761,2000 L0,2000z"></path>
    </clipPath>
    <clipPath id="__lottie_element_521">
      <path d="M0,0 L2761,0 L2761,2000 L0,2000z"></path>
    </clipPath>
  </defs>
  <g clip-path="url(#__lottie_element_499)">
    <g transform="matrix(0.9995319843292236,0,0,0.9995319843292236,5.104248046875,-20.959716796875)" opacity="1" style="display: block;">
      <g opacity="1" transform="matrix(1,0,0,1,1378.1800537109375,958.9099731445312)">
        <path fill="rgb(225,236,184)" fill-opacity="1" d=" M-847.3579711914062,-564.0880126953125 C-1377.9300537109375,-49.44200134277344 -1067.2049560546875,932.7969970703125 -1067.2049560546875,932.7969970703125 C-1067.2049560546875,932.7969970703125 1027.782958984375,937.0640258789062 1027.782958984375,937.0640258789062 C1027.782958984375,937.0640258789062 1418.1500244140625,238.35800170898438 1014.823974609375,-329.3680114746094 C642.3870239257812,-853.6129760742188 -440.5769958496094,-958.6599731445312 -847.3579711914062,-564.0880126953125z"></path>
      </g>
    </g>
    <g transform="matrix(1,0,0,1,351.4909973144531,285.05694580078125)" opacity="0.9999926135139043" style="display: block;">
      <g opacity="1" transform="matrix(1,0,0,1,322.8340148925781,830.0449829101562)">
        <path fill="rgb(235,161,93)" fill-opacity="1" d=" M-322.5840148925781,742.1279907226562 C-322.5840148925781,742.1279907226562 322.5840148925781,742.1279907226562 322.5840148925781,742.1279907226562 C322.5840148925781,742.1279907226562 322.5840148925781,-742.1279907226562 322.5840148925781,-742.1279907226562 C322.5840148925781,-742.1279907226562 -322.5840148925781,-742.1279907226562 -322.5840148925781,-742.1279907226562 C-322.5840148925781,-742.1279907226562 -322.5840148925781,742.1279907226562 -322.5840148925781,742.1279907226562z"></path>
      </g>
      <g opacity="1" transform="matrix(1,0,0,1,413.385986328125,786.4290161132812)">
        <path fill="rgb(214,101,82)" fill-opacity="1" d=" M-21.091999053955078,786.1790161132812 C-21.091999053955078,786.1790161132812 21.091999053955078,786.1790161132812 21.091999053955078,786.1790161132812 C21.091999053955078,786.1790161132812 21.091999053955078,-786.1790161132812 21.091999053955078,-786.1790161132812 C21.091999053955078,-786.1790161132812 -21.091999053955078,-786.1790161132812 -21.091999053955078,-786.1790161132812 C-21.091999053955078,-786.1790161132812 -21.091999053955078,786.1790161132812 -21.091999053955078,786.1790161132812z"></path>
      </g>
      <g opacity="1" transform="matrix(1,0,0,1,197.38099670410156,786.1240234375)">
        <path fill="rgb(236,126,99)" fill-opacity="1" d=" M194.96099853515625,-785.8510131835938 C194.96400451660156,-781.8560180664062 195.2480010986328,785.8510131835938 195.2480010986328,785.8510131835938 C195.2480010986328,785.8510131835938 -195.2480010986328,785.8510131835938 -195.2480010986328,785.8510131835938 C-195.2480010986328,785.8510131835938 -195.2480010986328,-699.1539916992188 -195.2480010986328,-699.1539916992188 C-195.2480010986328,-699.1539916992188 194.96099853515625,-785.8510131835938 194.96099853515625,-785.8510131835938z"></path>
      </g>
      <g opacity="1" transform="matrix(1,0,0,1,195.53399658203125,401.73199462890625)">
        <path fill="rgb(236,126,99)" fill-opacity="1" d=" M-148.70399475097656,-184.61599731445312 C-148.70399475097656,-184.61599731445312 -146.781005859375,230.46200561523438 -146.781005859375,230.46200561523438 C-145.13699340820312,230.25900268554688 -143.50999450683594,230.16099548339844 -141.89999389648438,230.16099548339844 C-120.56999969482422,230.16099548339844 -102.68399810791016,247.44000244140625 -102.58200073242188,269.37200927734375 C-102.58200073242188,269.37200927734375 114.12899780273438,242.7010040283203 114.12899780273438,242.7010040283203 C114.04000091552734,222.74099731445312 128.8939971923828,205.86900329589844 148.70399475097656,203.42999267578125 C148.70399475097656,203.42999267578125 146.75399780273438,-231.02200317382812 146.75399780273438,-231.02200317382812 C143.968994140625,-230.42999267578125 141.20199584960938,-230.14700317382812 138.48599243164062,-230.14700317382812 C117.37000274658203,-230.14700317382812 99.28099822998047,-247.2429962158203 99.18099975585938,-269.37200927734375 C99.18099975585938,-269.37200927734375 -117.50499725341797,-223.3260040283203 -117.50499725341797,-223.3260040283203 C-117.41799926757812,-204.66000366210938 -130.44500732421875,-188.49600219726562 -148.70399475097656,-184.61599731445312z M-133.5050048828125,-173.88999938964844 C-118.58899688720703,-181.01199340820312 -107.58799743652344,-194.66400146484375 -103.7959976196289,-210.7519989013672 C-103.7959976196289,-210.7519989013672 87.16300201416016,-251.33099365234375 87.16300201416016,-251.33099365234375 C93.94599914550781,-232.2570037841797 111.05599975585938,-218.0229949951172 131.67599487304688,-215.4239959716797 C131.67599487304688,-215.4239959716797 133.50399780273438,191.78399658203125 133.50399780273438,191.78399658203125 C117.23200225830078,198.1999969482422 104.95500183105469,212.14300537109375 100.6510009765625,229.09500122070312 C100.6510009765625,229.09500122070312 -90.14299774169922,252.5780029296875 -90.14299774169922,252.5780029296875 C-96.26499938964844,233.95199584960938 -112.16699981689453,219.7100067138672 -131.69900512695312,215.97500610351562 C-131.69900512695312,215.97500610351562 -133.5050048828125,-173.88999938964844 -133.5050048828125,-173.88999938964844z"></path>
      </g>
      <g opacity="1" transform="matrix(1,0,0,1,115.64199829101562,1218.3740234375)">
        <path fill="rgb(236,126,99)" fill-opacity="1" d=" M-68.13800048828125,-244.875 C-68.13800048828125,-244.875 -67.26300048828125,249.8260040283203 -67.26300048828125,249.8260040283203 C-67.23899841308594,249.8260040283203 -67.21600341796875,249.8260040283203 -67.19300079345703,249.8260040283203 C-45.47200012207031,249.8260040283203 -27.8439998626709,267.4150085449219 -27.805999755859375,289.1440124511719 C-27.805999755859375,289.1440124511719 28.820999145507812,289.0419921875 28.820999145507812,289.0419921875 C28.820999145507812,267.3169860839844 46.4119987487793,249.69500732421875 68.13800048828125,249.656005859375 C68.13800048828125,249.656005859375 68.13800048828125,-249.9010009765625 68.13800048828125,-249.9010009765625 C66.98300170898438,-249.8000030517578 65.83699798583984,-249.7519989013672 64.69999694824219,-249.7519989013672 C43.20199966430664,-249.7519989013672 25.368000030517578,-267.2139892578125 25.368000030517578,-289.14300537109375 C25.368000030517578,-289.14300537109375 -32.13399887084961,-284.1860046386719 -32.13399887084961,-284.1860046386719 C-32.09700012207031,-263.7170104980469 -47.74599838256836,-246.6320037841797 -68.13800048828125,-244.875z M-52.96799850463867,-232.86099243164062 C-36.31700134277344,-238.96400451660156 -23.45599937438965,-253.00399780273438 -18.836999893188477,-270.12701416015625 C-18.836999893188477,-270.12701416015625 12.70300006866455,-272.843994140625 12.70300006866455,-272.843994140625 C18.496999740600586,-254.35699462890625 33.880001068115234,-240.0780029296875 52.9900016784668,-235.87100219726562 C52.9900016784668,-235.87100219726562 52.9900016784668,236.6699981689453 52.9900016784668,236.6699981689453 C35.11000061035156,241.87899780273438 20.98699951171875,256.02801513671875 15.809000015258789,273.9169921875 C15.809000015258789,273.9169921875 -14.826000213623047,273.97198486328125 -14.826000213623047,273.97198486328125 C-20.04800033569336,256.0769958496094 -34.22100067138672,241.9510040283203 -52.137001037597656,236.79200744628906 C-52.137001037597656,236.79200744628906 -52.96799850463867,-232.86099243164062 -52.96799850463867,-232.86099243164062z"></path>
      </g>
      <g opacity="1" transform="matrix(1,0,0,1,273.5,1211.5870361328125)">
        <path fill="rgb(236,126,99)" fill-opacity="1" d=" M-64.47100067138672,-252.0800018310547 C-64.47100067138672,-252.0800018310547 -64.47100067138672,256.2590026855469 -64.47100067138672,256.2590026855469 C-64.47100067138672,256.2590026855469 -64.4000015258789,256.2590026855469 -64.4000015258789,256.2590026855469 C-42.652000427246094,256.2590026855469 -25.01300048828125,273.88800048828125 -25.01300048828125,295.64599609375 C-25.01300048828125,295.64599609375 21.23900032043457,295.5639953613281 21.23900032043457,295.5639953613281 C21.402999877929688,273.9549865722656 38.94599914550781,256.5159912109375 60.55500030517578,256.47698974609375 C60.55500030517578,256.47698974609375 64.47100067138672,-256.10198974609375 64.47100067138672,-256.10198974609375 C63.316001892089844,-256.0039978027344 62.167999267578125,-255.9550018310547 61.03099822998047,-255.9550018310547 C39.417999267578125,-255.9550018310547 21.533000946044922,-273.5979919433594 21.70199966430664,-295.64599609375 C21.70199966430664,-295.64599609375 -28.465999603271484,-291.3219909667969 -28.465999603271484,-291.3219909667969 C-28.465999603271484,-270.8800048828125 -44.104000091552734,-253.83599853515625 -64.47100067138672,-252.0800018310547z M-49.321998596191406,-239.98300170898438 C-32.433998107910156,-245.9929962158203 -19.649999618530273,-259.9259948730469 -15.112000465393066,-277.26800537109375 C-15.112000465393066,-277.26800537109375 8.923999786376953,-279.3380126953125 8.923999786376953,-279.3380126953125 C11.473999977111816,-270.9830017089844 16.035999298095703,-263.32000732421875 22.368999481201172,-256.93798828125 C29.850000381469727,-249.39999389648438 39.11899948120117,-244.31500244140625 49.21500015258789,-242.08700561523438 C49.21500015258789,-242.08700561523438 45.505001068115234,243.4739990234375 45.505001068115234,243.4739990234375 C27.719999313354492,248.64500427246094 13.598999977111816,262.6839904785156 8.324000358581543,280.43798828125 C8.324000358581543,280.43798828125 -12.01099967956543,280.4739990234375 -12.01099967956543,280.4739990234375 C-17.209999084472656,262.5469970703125 -31.381999969482422,248.3979949951172 -49.321998596191406,243.22900390625 C-49.321998596191406,243.22900390625 -49.321998596191406,-239.98300170898438 -49.321998596191406,-239.98300170898438z"></path>
      </g>
      <g opacity="1" transform="matrix(1,0,0,1,303.1719970703125,786.9459838867188)">
        <path fill="rgb(245,216,153)" fill-opacity="1" d=" M-15.909000396728516,0 C-15.909000396728516,17.04199981689453 -8.786999702453613,30.856000900268555 0,30.856000900268555 C8.78600025177002,30.856000900268555 15.909000396728516,17.04199981689453 15.909000396728516,0 C15.909000396728516,-17.04199981689453 8.78600025177002,-30.856000900268555 0,-30.856000900268555 C-8.786999702453613,-30.856000900268555 -15.909000396728516,-17.04199981689453 -15.909000396728516,0z"></path>
      </g>
      <g opacity="1" transform="matrix(1,0,0,1,289.8009948730469,788.25)">
        <path fill="rgb(214,101,82)" fill-opacity="1" d=" M-17.43600082397461,-12.164999961853027 C-17.43600082397461,-12.164999961853027 -17.43600082397461,12.164999961853027 -17.43600082397461,12.164999961853027 C-17.43600082397461,12.164999961853027 15.902999877929688,12.164999961853027 15.902999877929688,12.164999961853027 C16.88800048828125,8.14900016784668 17.43600082397461,3.6510000228881836 17.43600082397461,-1.0820000171661377 C17.43600082397461,-4.980000019073486 17.06100082397461,-8.722000122070312 16.3700008392334,-12.164999961853027 C16.3700008392334,-12.164999961853027 -17.43600082397461,-12.164999961853027 -17.43600082397461,-12.164999961853027z"></path>
      </g>
      <g opacity="1" transform="matrix(1,0,0,1,273.3840026855469,786.9459838867188)">
        <path fill="rgb(248,231,195)" fill-opacity="1" d=" M-23.97599983215332,0 C-23.97599983215332,25.68400001525879 -13.241000175476074,46.50299835205078 0.0010000000474974513,46.50299835205078 C13.241999626159668,46.50299835205078 23.97599983215332,25.68400001525879 23.97599983215332,0 C23.97599983215332,-25.683000564575195 13.241999626159668,-46.50299835205078 0.0010000000474974513,-46.50299835205078 C-13.241000175476074,-46.50299835205078 -23.97599983215332,-25.683000564575195 -23.97599983215332,0z"></path>
      </g>
      <g opacity="1" transform="matrix(1,0,0,1,266.9519958496094,786.9459838867188)">
        <path fill="rgb(248,231,195)" fill-opacity="1" d=" M-23.97599983215332,0 C-23.97599983215332,25.68400001525879 -13.241000175476074,46.50299835205078 0.0010000000474974513,46.50299835205078 C13.243000030517578,46.50299835205078 23.97599983215332,25.68400001525879 23.97599983215332,0 C23.97599983215332,-25.683000564575195 13.243000030517578,-46.50299835205078 0.0010000000474974513,-46.50299835205078 C-13.241000175476074,-46.50299835205078 -23.97599983215332,-25.683000564575195 -23.97599983215332,0z"></path>
      </g>
    </g>
    <g transform="matrix(1,0,0,1,207.4620361328125,1856.3660888671875)" opacity="1" style="display: block;">
      <g opacity="1" transform="matrix(1,0,0,1,1172.8179931640625,15.861000061035156)">
        <path fill="rgb(255,174,164)" fill-opacity="1" d=" M-1161.8909912109375,15.611000061035156 C-1161.8909912109375,15.611000061035156 1161.8919677734375,15.611000061035156 1161.8919677734375,15.611000061035156 C1167.7889404296875,15.611000061035156 1172.5679931640625,8.625 1172.5679931640625,0.0020000000949949026 C1172.5679931640625,-8.619999885559082 1167.7889404296875,-15.611000061035156 1161.8919677734375,-15.611000061035156 C1161.8919677734375,-15.611000061035156 -1161.8909912109375,-15.611000061035156 -1161.8909912109375,-15.611000061035156 C-1167.7879638671875,-15.611000061035156 -1172.5679931640625,-8.619999885559082 -1172.5679931640625,0.0020000000949949026 C-1172.5679931640625,8.625 -1167.7879638671875,15.611000061035156 -1161.8909912109375,15.611000061035156z"></path>
      </g>
    </g>
    <g clip-path="url(#__lottie_element_501)" transform="matrix(1,0,0,1,0,0)" opacity="1" style="display: block;">
      <g transform="matrix(0.5796351432800293,0.814876139163971,-0.814876139163971,0.5796351432800293,1363.041748046875,715.7269287109375)" opacity="1" style="display: block;">
        <g opacity="1" transform="matrix(1,0,0,1,326.72198486328125,65.19300079345703)">
          <path fill="rgb(250,185,168)" fill-opacity="1" d=" M129.11900329589844,-54.78799819946289 C114.76499938964844,-38.952999114990234 117.88600158691406,-37.04899978637695 115.99199676513672,-35.07099914550781 C113.75,-32.72999954223633 72.09100341796875,-23.854999542236328 72.09100341796875,-23.854999542236328 C72.09100341796875,-23.854999542236328 -50.507999420166016,3.1500000953674316 -57.18199920654297,4.367000102996826 C-57.18199920654297,4.367000102996826 -184.36500549316406,-24.56100082397461 -184.36500549316406,-24.56100082397461 C-184.36500549316406,-24.56100082397461 -215.3300018310547,37.064998626708984 -215.3300018310547,37.064998626708984 C-215.3300018310547,37.064998626708984 -76.2020034790039,64.69999694824219 -68.7020034790039,64.82099914550781 C-61.20199966430664,64.94300079345703 100.2229995727539,8.239999771118164 114.59700012207031,3.7279999256134033 C114.59700012207031,3.7279999256134033 133.71600341796875,4.9710001945495605 145.74000549316406,5.341000080108643 C157.76600646972656,5.708000183105469 169.26499938964844,0.47699999809265137 172.66200256347656,0.035999998450279236 C173.16099548339844,-0.02800000086426735 184.3780059814453,-2.178999900817871 197.47000122070312,-8.675999641418457 C208.75,-14.27400016784668 195.53199768066406,-14.383999824523926 195.53199768066406,-14.383999824523926 C195.53199768066406,-14.383999824523926 172.80299377441406,-7.949999809265137 172.60400390625,-9.911999702453613 C172.4499969482422,-11.425999641418457 185.072998046875,-14.173999786376953 197.6179962158203,-20.23200035095215 C200.8470001220703,-21.788000106811523 204.0229949951172,-23.339000701904297 206.92999267578125,-24.785999298095703 C214.56300354003906,-28.583999633789062 214.45700073242188,-34.58599853515625 205.84500122070312,-31.944000244140625 C202.80499267578125,-31.01300048828125 197.79100036621094,-29.33300018310547 194.38499450683594,-27.608999252319336 C190.7050018310547,-25.743000030517578 186.73500061035156,-25.277000427246094 183.4080047607422,-24.20599937438965 C176.8000030517578,-22.07900047302246 172.00999450683594,-20.440000534057617 172.0709991455078,-20.773000717163086 C172.1479949951172,-21.20599937438965 170.5449981689453,-21.756999969482422 173.91700744628906,-23.518999099731445 C177.97300720214844,-25.641000747680664 187.5679931640625,-28.145999908447266 193.2949981689453,-31.75200080871582 C196.54200744628906,-33.797000885009766 203.5850067138672,-37.6349983215332 203.5850067138672,-37.6349983215332 C203.5850067138672,-37.6349983215332 215.33099365234375,-45.314998626708984 214.18699645996094,-46.90299987792969 C211.68699645996094,-50.36800003051758 203.4739990234375,-46.85900115966797 199.41700744628906,-43.474998474121094 C195.7570037841797,-42.71799850463867 188.46299743652344,-38.45899963378906 188.46299743652344,-38.45899963378906 C188.46299743652344,-38.45899963378906 171.8209991455078,-33.32899856567383 171.06300354003906,-35.7859992980957 C170.75799560546875,-36.762001037597656 179.34100341796875,-41.74100112915039 187.91799926757812,-47.683998107910156 C196.98500061035156,-53.96799850463867 203.21600341796875,-58.95000076293945 202.34500122070312,-60.97200012207031 C200.968994140625,-64.19100189208984 193.3280029296875,-59.72100067138672 193.3280029296875,-59.72100067138672 C193.3280029296875,-59.72100067138672 186.59300231933594,-55.7760009765625 184.2570037841797,-54.64500045776367 C181.52000427246094,-53.32099914550781 173.0229949951172,-50.0099983215332 173.0229949951172,-50.0099983215332 C173.0229949951172,-50.0099983215332 142.9199981689453,-39.93000030517578 142.39100646972656,-42.31999969482422 C141.86199951171875,-44.70500183105469 142.84300231933594,-51.3650016784668 144.49200439453125,-52.66699981689453 C146.14100646972656,-53.97100067138672 150.38400268554688,-54.683998107910156 152.03399658203125,-55.98699951171875 C153.6840057373047,-57.28900146484375 156.96400451660156,-60.428001403808594 155.56100463867188,-62.68299865722656 C154.16299438476562,-64.94300079345703 141.63499450683594,-61.922000885009766 141.63499450683594,-61.922000885009766 C141.63499450683594,-61.922000885009766 133.26499938964844,-59.35900115966797 129.11900329589844,-54.78799819946289z"></path>
        </g>
        <g opacity="1" transform="matrix(1,0,0,1,93.10900115966797,68.2959976196289)">
          <path fill="rgb(168,225,213)" fill-opacity="1" d=" M92.85900115966797,-21.125999450683594 C92.85900115966797,-21.125999450683594 88.48400115966797,5.888999938964844 85.66600036621094,15.885000228881836 C83.3280029296875,24.18899917602539 66.87200164794922,58.3489990234375 66.87200164794922,58.3489990234375 C66.87200164794922,58.3489990234375 7.89900016784668,39.01499938964844 -19.9689998626709,27.954999923706055 C-32.26300048828125,24.413999557495117 -42.132999420166016,-5.482999801635742 -36.32099914550781,-22.01799964904785 C-31.040000915527344,-37.04499816894531 -15.625,-48.04100036621094 5.633999824523926,-44.88999938964844 C50.44300079345703,-38.249000549316406 92.85900115966797,-21.125999450683594 92.85900115966797,-21.125999450683594z"></path>
        </g>
        <g opacity="1" transform="matrix(1,0,0,1,466.8210144042969,33.62200164794922)">
          <path fill="rgb(247,190,139)" fill-opacity="1" d=" M-9.432999610900879,10.277000427246094 C-1.49399995803833,5.750999927520752 4.6479997634887695,-1.3459999561309814 2.628999948501587,-10.277000427246094 C9.432999610900879,-3.2049999237060547 0.8550000190734863,9.854000091552734 -9.432999610900879,10.277000427246094z"></path>
        </g>
      </g>
      <g transform="matrix(1,0,0,1,1278.6490478515625,1102.75)" opacity="1" style="display: block;">
        <g opacity="1" transform="matrix(1,0,0,1,77.4280014038086,725.2030029296875)">
          <path fill="rgb(249,184,167)" fill-opacity="1" d=" M-25.868000030517578,-39.4900016784668 C-25.868000030517578,-39.4900016784668 -38.314998626708984,-3.8480000495910645 -38.327999114990234,-3.760999917984009 C-39.255001068115234,1.8860000371932983 -42.89899826049805,15.838000297546387 -42.89899826049805,20.9689998626709 C-42.89899826049805,40.25299835205078 42.89899826049805,4.603000164031982 23.670000076293945,-3.943000078201294 C21.929000854492188,-4.718999862670898 16.468000411987305,-10.895999908447266 15.89799976348877,-17.458999633789062 C15.015000343322754,-27.570999145507812 23.124000549316406,-40.25299835205078 23.124000549316406,-40.25299835205078 C23.124000549316406,-40.25299835205078 -25.868000030517578,-39.4900016784668 -25.868000030517578,-39.4900016784668z"></path>
        </g>
        <g opacity="1" transform="matrix(1,0,0,1,106.79100036621094,351.0780029296875)">
          <path fill="rgb(88,109,158)" fill-opacity="1" d=" M48.81700134277344,-350.8280029296875 C48.81700134277344,-350.8280029296875 79.51799774169922,-256.14599609375 79.51799774169922,-256.14599609375 C79.51799774169922,-256.14599609375 106.54100036621094,25.900999069213867 102.69599914550781,45.33100128173828 C93.31900024414062,92.72699737548828 -1.4429999589920044,350.8280029296875 -1.4429999589920044,350.8280029296875 C-1.4429999589920044,350.8280029296875 -62.15299987792969,343.09600830078125 -62.15299987792969,343.09600830078125 C-62.15299987792969,343.09600830078125 4.478000164031982,37.93299865722656 4.478000164031982,37.93299865722656 C4.478000164031982,37.93299865722656 -106.54100036621094,-248.7449951171875 -106.54100036621094,-248.7449951171875 C-106.54100036621094,-248.7449951171875 48.81700134277344,-350.8280029296875 48.81700134277344,-350.8280029296875z"></path>
        </g>
      </g>
      <g transform="matrix(1,0,0,1,1308.0469970703125,1823.5760498046875)" opacity="1" style="display: block;">
        <g opacity="1" transform="matrix(1,0,0,1,73.32599639892578,15.979999542236328)">
          <path fill="rgb(77,164,148)" fill-opacity="1" d=" M-73.07599639892578,15.729999542236328 C-73.07599639892578,15.729999542236328 -63.250999450683594,-15.729999542236328 -63.250999450683594,-15.729999542236328 C-63.250999450683594,-15.729999542236328 -42.61600112915039,-6.88100004196167 -32.29899978637695,-8.354999542236328 C-21.983999252319336,-9.831999778747559 -1.8389999866485596,-15.729999542236328 -1.8389999866485596,-15.729999542236328 C39.34000015258789,-1.9919999837875366 73.07599639892578,4.677000045776367 66.94000244140625,15.729999542236328 C66.94000244140625,15.729999542236328 -73.07599639892578,15.729999542236328 -73.07599639892578,15.729999542236328z"></path>
        </g>
      </g>
      <g transform="matrix(0.9659258127212524,0.258819043636322,-0.258819043636322,0.9659258127212524,1309.9168701171875,1081.3111572265625)" opacity="1" style="display: block;">
        <g opacity="1" transform="matrix(1,0,0,1,77.4280014038086,725.2030029296875)">
          <path fill="rgb(249,184,167)" fill-opacity="1" d=" M-25.868000030517578,-39.4900016784668 C-25.868000030517578,-39.4900016784668 -38.314998626708984,-3.8480000495910645 -38.327999114990234,-3.760999917984009 C-39.255001068115234,1.8860000371932983 -42.89899826049805,15.838000297546387 -42.89899826049805,20.9689998626709 C-42.89899826049805,40.25299835205078 42.89899826049805,4.603000164031982 23.670000076293945,-3.943000078201294 C21.929000854492188,-4.718999862670898 16.468000411987305,-10.895999908447266 15.89799976348877,-17.458999633789062 C15.015000343322754,-27.570999145507812 23.124000549316406,-40.25299835205078 23.124000549316406,-40.25299835205078 C23.124000549316406,-40.25299835205078 -25.868000030517578,-39.4900016784668 -25.868000030517578,-39.4900016784668z"></path>
        </g>
        <g opacity="1" transform="matrix(1,0,0,1,106.79100036621094,351.0780029296875)">
          <path fill="rgb(88,109,158)" fill-opacity="1" d=" M48.81700134277344,-350.8280029296875 C48.81700134277344,-350.8280029296875 79.51799774169922,-256.14599609375 79.51799774169922,-256.14599609375 C79.51799774169922,-256.14599609375 106.54100036621094,25.900999069213867 102.69599914550781,45.33100128173828 C93.31900024414062,92.72699737548828 -1.4429999589920044,350.8280029296875 -1.4429999589920044,350.8280029296875 C-1.4429999589920044,350.8280029296875 -62.15299987792969,343.09600830078125 -62.15299987792969,343.09600830078125 C-62.15299987792969,343.09600830078125 4.478000164031982,37.93299865722656 4.478000164031982,37.93299865722656 C4.478000164031982,37.93299865722656 -106.54100036621094,-248.7449951171875 -106.54100036621094,-248.7449951171875 C-106.54100036621094,-248.7449951171875 48.81700134277344,-350.8280029296875 48.81700134277344,-350.8280029296875z"></path>
        </g>
      </g>
      <g transform="matrix(0.9659258127212524,0.258819043636322,-0.258819043636322,0.9659258127212524,1151.7496337890625,1785.184326171875)" opacity="1" style="display: block;">
        <g opacity="1" transform="matrix(1,0,0,1,73.32599639892578,15.979999542236328)">
          <path fill="rgb(77,164,148)" fill-opacity="1" d=" M-73.07599639892578,15.729999542236328 C-73.07599639892578,15.729999542236328 -63.250999450683594,-15.729999542236328 -63.250999450683594,-15.729999542236328 C-63.250999450683594,-15.729999542236328 -42.61600112915039,-6.88100004196167 -32.29899978637695,-8.354999542236328 C-21.983999252319336,-9.831999778747559 -1.8389999866485596,-15.729999542236328 -1.8389999866485596,-15.729999542236328 C39.34000015258789,-1.9919999837875366 73.07599639892578,4.677000045776367 66.94000244140625,15.729999542236328 C66.94000244140625,15.729999542236328 -73.07599639892578,15.729999542236328 -73.07599639892578,15.729999542236328z"></path>
        </g>
      </g>
      <g transform="matrix(1,0,0,1,1253.958984375,780.530029296875)" opacity="1" style="display: block;">
        <g opacity="1" transform="matrix(1,0,0,1,106.11199951171875,218.81100463867188)">
          <path fill="rgb(96,203,184)" fill-opacity="1" d=" M105.86199951171875,196.3520050048828 C49.599998474121094,218.55999755859375 -82.6449966430664,205.74099731445312 -82.6449966430664,205.74099731445312 C-82.6449966430664,205.74099731445312 -74.26499938964844,147.9980010986328 -71.30400085449219,108.9990005493164 C-68.34300231933594,70.02899932861328 -93.15899658203125,8.321999549865723 -103.63999938964844,-98.75700378417969 C-105.86199951171875,-121.46600341796875 -96.97699737548828,-182.79100036621094 -65.1449966430664,-202.03799438476562 C-53.95100021362305,-208.79299926757812 -47.111000061035156,-209.6820068359375 -47.111000061035156,-209.6820068359375 C-46.814998626708984,-209.68800354003906 -3.308000087738037,-218.56100463867188 18.892000198364258,-211.7209930419922 C25.198999404907227,-206.0989990234375 44.86000061035156,-189.86900329589844 56.17300033569336,-170.88699340820312 C71.03800201416016,-145.74899291992188 83.23899841308594,-116.75900268554688 86.11000061035156,-107.2239990234375 C98.93199920654297,-64.76100158691406 104.38099670410156,58.18600082397461 104.38099670410156,81.37100219726562 C104.38099670410156,104.55899810791016 105.86199951171875,196.3520050048828 105.86199951171875,196.3520050048828z"></path>
        </g>
      </g>
      <g transform="matrix(1,0,0,1,1312.678955078125,712.75)" opacity="1" style="display: block;">
        <g opacity="1" transform="matrix(1,0,0,1,51.90800094604492,61.367000579833984)">
          <path fill="rgb(249,184,167)" fill-opacity="1" d=" M51.65800094604492,54.33700180053711 C51.62799835205078,54.367000579833984 51.56700134277344,54.36800003051758 51.50899887084961,54.395999908447266 C29.891000747680664,61.117000579833984 -51.65800094604492,15.781999588012695 -51.65800094604492,15.781999588012695 C-51.65800094604492,15.781999588012695 -51.62799835205078,15.543999671936035 -51.62799835205078,15.543999671936035 C-51.62799835205078,15.543999671936035 -41.73899841308594,-49.12799835205078 -41.73899841308594,-49.12799835205078 C-41.73899841308594,-49.12799835205078 9.163999557495117,-61.11600112915039 6.203000068664551,-42.729000091552734 C3.240999937057495,-24.3700008392334 13.10200023651123,12.345000267028809 13.10200023651123,12.345000267028809 C13.428000450134277,12.675000190734863 13.843999862670898,13.059000015258789 14.376999855041504,13.505000114440918 C20.68400001525879,19.12700080871582 40.345001220703125,35.35499954223633 51.65800094604492,54.33700180053711z"></path>
        </g>
        <g opacity="1" transform="matrix(1,0,0,1,35.20199966430664,23.472999572753906)">
          <path fill="rgb(254,161,122)" fill-opacity="1" d=" M22.90399932861328,-4.8420000076293945 C25.865999221801758,-23.214000701904297 -25.04199981689453,-11.220999717712402 -25.04199981689453,-11.220999717712402 C-25.04199981689453,-11.220999717712402 -25.864999771118164,-5.841000080108643 -25.864999771118164,-5.841000080108643 C-24.37700080871582,-2.242000102996826 -22.554000854492188,0.8410000205039978 -20.344999313354492,3.203000068664551 C-8.972000122070312,15.359999656677246 8.802000045776367,22.660999298095703 24.17099952697754,23.214000701904297 C22.632999420166016,13.309000015258789 21.687999725341797,2.690999984741211 22.90399932861328,-4.8420000076293945z"></path>
        </g>
      </g>
      <g clip-path="url(#__lottie_element_521)" transform="matrix(1,0,0,1,0,0)" opacity="1" style="display: block;">
        <g transform="matrix(0.9944226145744324,0.10546892881393433,-0.10546892881393433,0.9944226145744324,1803.17724609375,750.9392700195312)" opacity="1" style="display: block;">
          <g opacity="1" transform="matrix(1,0,0,1,174.56199645996094,245.8090057373047)">
            <path fill="rgb(247,190,139)" fill-opacity="1" d=" M-154.86199951171875,45.944000244140625 C-143.83299255371094,50.09199905395508 -129.20899963378906,56.25 -129.20899963378906,56.25 C-127.31900024414062,51.69900131225586 -163.7259979248047,43.91600036621094 -168.83200073242188,32.83300018310547 C-171.5659942626953,26.89900016784668 -127.0530014038086,48.73899841308594 -123.96299743652344,46.13600158691406 C-122.67900085449219,45.055999755859375 -174.31199645996094,28.24799919128418 -171.9290008544922,24.19099998474121 C-169.927001953125,20.781999588012695 -117.64299774169922,39.21099853515625 -117.35399627685547,36.65999984741211 C-116.9540023803711,33.1150016784668 -162.6230010986328,23.95599937438965 -158.53500366210938,18.854000091552734 C-156.44000244140625,16.239999771118164 -101.01100158691406,31.23200035095215 -95.02899932861328,32.10499954223633 C-87.71099853515625,32.10499954223633 -114.19100189208984,14.119000434875488 -105.1719970703125,11.71399974822998 C-92.9229965209961,8.446999549865723 -62.15999984741211,43.7130012512207 -59.757999420166016,44.21099853515625 C-52.792999267578125,45.654998779296875 6.495999813079834,52.91400146484375 35.5260009765625,33.926998138427734 C58.972999572753906,18.591999053955078 81.72200012207031,-4.992000102996826 87.29100036621094,-25.297000885009766 C92.7509994506836,-45.20600128173828 100.31800079345703,-73.64199829101562 93.85099792480469,-95.5780029296875 C120.26000213623047,-99.5979995727539 145.88099670410156,-100.52100372314453 172.68299865722656,-97.31800079345703 C174.31300354003906,-64.3759994506836 134.87100219726562,66.15299987792969 118.37999725341797,76.89299774169922 C82.0999984741211,100.52200317382812 17.371000289916992,94.74199676513672 -28.261999130249023,90.98400115966797 C-65.04100036621094,87.95600128173828 -101.06099700927734,80.71199798583984 -134.18600463867188,63.9010009765625 C-141.59100341796875,60.143001556396484 -151.50900268554688,55.93299865722656 -157.24000549316406,49.39400100708008 C-158.7220001220703,47.70399856567383 -156.9669952392578,45.15299987792969 -154.86199951171875,45.944000244140625z"></path>
          </g>
          <g opacity="1" transform="matrix(1,0,0,1,314.4549865722656,124.80899810791016)">
            <path fill="rgb(99,149,27)" fill-opacity="1" d=" M-29.552000045776367,-85.14900207519531 C-49.20600128173828,-64.8479995727539 -69.05400085449219,56.7859992980957 -61.749000549316406,85.7760009765625 C-49.137001037597656,109.32499694824219 7.9770002365112305,113.38899993896484 26.44700050354004,124.55899810791016 C69.05400085449219,107.04000091552734 39.86600112915039,28.474000930786133 39.86600112915039,28.474000930786133 C39.86600112915039,28.474000930786133 55.39899826049805,-124.55899810791016 55.39899826049805,-124.55899810791016 C55.39899826049805,-124.55899810791016 7.883999824523926,-123.81700134277344 -29.552000045776367,-85.14900207519531z"></path>
          </g>
        </g>
        <g transform="matrix(1,0,0,1,2210.406982421875,1150.669921875)" opacity="1" style="display: block;">
          <g opacity="1" transform="matrix(1,0,0,1,70.5270004272461,639.0430297851562)">
            <path fill="rgb(247,190,139)" fill-opacity="1" d=" M-11.895000457763672,-6.113999843597412 C-11.895000457763672,-6.113999843597412 -11.732999801635742,-4.618000030517578 -11.732999801635742,-2.121999979019165 C-11.729999542236328,5.368000030517578 -13.189000129699707,21.8700008392334 -24.893999099731445,34.04800033569336 C-40.50199890136719,50.2859992980957 -40.59600067138672,70.48699951171875 -24.10700035095215,73.93800354003906 C-7.617000102996826,77.38800048828125 31.704999923706055,72.83200073242188 31.704999923706055,72.83200073242188 C31.704999923706055,72.83200073242188 40.59600067138672,57.3849983215332 34.525001525878906,16.121999740600586 C28.45400047302246,-25.138999938964844 24.930999755859375,-70.39199829101562 24.930999755859375,-70.39199829101562 C24.930999755859375,-70.39199829101562 -19.874000549316406,-77.38800048828125 -19.874000549316406,-77.38800048828125 C-19.874000549316406,-77.38800048828125 -11.895000457763672,-6.113999843597412 -11.895000457763672,-6.113999843597412z"></path>
          </g>
          <g opacity="1" transform="matrix(1,0,0,1,75.0459976196289,301.1260070800781)">
            <path fill="rgb(51,52,134)" fill-opacity="1" d=" M47.44200134277344,-247.81300354003906 C74.7959976196289,-147.79200744628906 40.834999084472656,300.8760070800781 40.834999084472656,300.8760070800781 C40.834999084472656,300.8760070800781 -41.05699920654297,295.27301025390625 -41.05699920654297,295.27301025390625 C-41.05699920654297,295.27301025390625 -59.6870002746582,-151.06500244140625 -73.1989974975586,-164.57699584960938 C-74.7959976196289,-166.1739959716797 -73.48799896240234,-191.02999877929688 -71.36100006103516,-220.0959930419922 C-67.30799865722656,-275.4840087890625 0.5989999771118164,-300.8760070800781 39.1150016784668,-260.8659973144531 C43.321998596191406,-256.4949951171875 46.266998291015625,-252.10899353027344 47.44200134277344,-247.81300354003906z"></path>
          </g>
          <g opacity="1" transform="matrix(1,0,0,1,122.72100067138672,317.27801513671875)">
            <path fill="rgb(41,41,108)" fill-opacity="1" d=" M-17.229999542236328,-284.7239990234375 C-8.451000213623047,-277.8599853515625 -2.1029999256134033,-270.79901123046875 -0.23399999737739563,-263.9649963378906 C27.121000289916992,-163.94400024414062 -6.840000152587891,284.7239990234375 -6.840000152587891,284.7239990234375 C-6.840000152587891,284.7239990234375 -27.121000289916992,283.3370056152344 -27.121000289916992,283.3370056152344 C-25.979999542236328,267.1090087890625 3.424999952316284,-155.20199584960938 -17.229999542236328,-284.7239990234375z"></path>
          </g>
          <g opacity="1" transform="matrix(1,0,0,1,74.12000274658203,613.6389770507812)">
            <path fill="rgb(126,137,180)" fill-opacity="1" d=" M41.729000091552734,22.336000442504883 C20.746999740600586,29.148000717163086 -29.757999420166016,27.45800018310547 -41.81700134277344,22.336000442504883 C-52.93899917602539,17.613000869750977 -53.689998626708984,-23.753000259399414 -41.81700134277344,-25.996999740600586 C-25.136999130249023,-29.148000717163086 22.14699935913086,-28.798999786376953 41.729000091552734,-25.996999740600586 C53.689998626708984,-24.284000396728516 53.22100067138672,18.60700035095215 41.729000091552734,22.336000442504883z"></path>
          </g>
        </g>
        <g transform="matrix(1,0,0,1,2235.60791015625,1798.06396484375)" opacity="1" style="display: block;">
          <g opacity="1" transform="matrix(1,0,0,1,44.630001068115234,45.86800003051758)">
            <path fill="rgb(41,40,108)" fill-opacity="1" d=" M-19.979999542236328,-42.78900146484375 C-19.979999542236328,-42.78900146484375 -36.599998474121094,-20.235000610351562 -40.4900016784668,-10.824000358581543 C-44.380001068115234,-1.4140000343322754 -43.54199981689453,21.98900032043457 -40.4900016784668,24.399999618530273 C-13.61400032043457,45.61800003051758 37.34000015258789,26.523000717163086 37.34000015258789,26.523000717163086 C37.34000015258789,26.523000717163086 40.84400177001953,10.963000297546387 42.61199951171875,-8.133999824523926 C44.380001068115234,-27.229000091552734 43.38399887084961,-45.02399826049805 37.34000015258789,-45.02399826049805 C31.29599952697754,-45.02399826049805 30.236000061035156,-35.00899887084961 16.44300079345703,-37.8390007019043 C2.6519999504089355,-40.66699981689453 -5.834000110626221,-45.61800003051758 -19.979999542236328,-42.78900146484375z"></path>
          </g>
          <g opacity="1" transform="matrix(1,0,0,1,43.612998962402344,69.36499786376953)">
            <path fill="rgb(255,254,255)" fill-opacity="1" d=" M42.58599853515625,-22.1200008392334 C32.22800064086914,-18.07200050354004 18.16200065612793,-13.342000007629395 5.084000110626221,-11.473999977111816 C-8.875,-9.479999542236328 -27.670000076293945,-15.694999694824219 -41.85200119018555,-21.937999725341797 C-42.58599853515625,-11.934000015258789 -41.53499984741211,-0.7250000238418579 -39.472999572753906,0.902999997138977 C-12.597000122070312,22.121000289916992 38.358001708984375,3.0260000228881836 38.358001708984375,3.0260000228881836 C38.358001708984375,3.0260000228881836 40.75699996948242,-7.626999855041504 42.58599853515625,-22.1200008392334z"></path>
          </g>
          <g opacity="1" transform="matrix(1,0,0,1,43.97999954223633,54.0629997253418)">
            <path fill="rgb(168,142,99)" fill-opacity="1" d=" M42.21900177001953,-6.817999839782715 C3.6630001068115234,4.764999866485596 -3.430999994277954,6.817999839782715 -42.21900177001953,-6.636000156402588 C-35.76100158691406,-3.1670000553131104 -28.974000930786133,-0.28700000047683716 -21.94099998474121,1.937000036239624 C-7.034999847412109,6.556000232696533 1.7660000324249268,6.1539998054504395 11.0649995803833,4.066999912261963 C22.159000396728516,1.6009999513626099 32.60200119018555,-2.1710000038146973 42.21900177001953,-6.817999839782715z"></path>
          </g>
        </g>
        <g transform="matrix(1,0,0,1,2037.4200439453125,1143.0489501953125)" opacity="1" style="display: block;">
          <g opacity="1" transform="matrix(1,0,0,1,85.3550033569336,657.6489868164062)">
            <path fill="rgb(247,190,139)" fill-opacity="1" d=" M16.948999404907227,-44.29899978637695 C22.763999938964844,-26.01300048828125 17.013999938964844,-5.881999969482422 2.1070001125335693,6.197000026702881 C-3.0390000343322754,10.366999626159668 -9.015999794006348,14.274999618530273 -15.777000427246094,17.229999542236328 C-41.875,28.639999389648438 -75.68099975585938,26.073999404907227 -80.39299774169922,49.5099983215332 C-85.10600280761719,72.94499969482422 85.10600280761719,42.93299865722656 85.10600280761719,42.93299865722656 C85.10600280761719,42.93299865722656 73.29499816894531,-14.069000244140625 72.53099822998047,-23.615999221801758 C71.76699829101562,-33.1619987487793 73.5719985961914,-68.22699737548828 73.5719985961914,-68.22699737548828 C73.5719985961914,-68.22699737548828 7.8379998207092285,-72.94499969482422 7.8379998207092285,-72.94499969482422 C7.8379998207092285,-72.94499969482422 16.948999404907227,-44.29899978637695 16.948999404907227,-44.29899978637695z"></path>
          </g>
          <g opacity="1" transform="matrix(1,0,0,1,92.85199737548828,311.77099609375)">
            <path fill="rgb(51,52,134)" fill-opacity="1" d=" M74.7020034790039,-167.5659942626953 C71.41000366210938,-165.3000030517578 64.91100311279297,-162.3730010986328 63.74100112915039,-158.55099487304688 C55.31399917602539,-131.01100158691406 7.144999980926514,29.30299949645996 16.856000900268555,64.40899658203125 C27.48900032043457,102.8479995727539 74.93599700927734,308.7760009765625 74.93599700927734,308.7760009765625 C74.93599700927734,308.7760009765625 6.223999977111816,311.52099609375 6.223999977111816,311.52099609375 C6.223999977111816,311.52099609375 -87.98500061035156,154.2010040283203 -87.98500061035156,44.37300109863281 C-87.98500061035156,-65.4540023803711 -72.66200256347656,-211.03900146484375 -28.143999099731445,-270.2749938964844 C-26.117000579833984,-272.97100830078125 -23.295000076293945,-275.6059875488281 -19.858999252319336,-278.1659851074219 C24.93600082397461,-311.5199890136719 87.98500061035156,-274.5570068359375 81.88600158691406,-219.04299926757812 C78.84300231933594,-191.34800720214844 75.96900177001953,-168.43699645996094 74.7020034790039,-167.5659942626953z"></path>
          </g>
          <g opacity="1" transform="matrix(1,0,0,1,125.06099700927734,376.739990234375)">
            <path fill="rgb(41,41,108)" fill-opacity="1" d=" M22.413999557495117,243.625 C22.413999557495117,243.625 -25.033000946044922,24.054000854492188 -35.66600036621094,-16.93400001525879 C-43.38800048828125,-46.696998596191406 -14.513999938964844,-160.87100219726562 1.8769999742507935,-221.16299438476562 C6.797999858856201,-239.26600646972656 28.540000915527344,-246.552001953125 43.38800048828125,-235.0850067138672 C43.38800048828125,-235.0850067138672 -25.983999252319336,-38.999000549316406 -15.35200023651123,-0.5600000023841858 C-4.718999862670898,37.880001068115234 42.72800064086914,243.8070068359375 42.72800064086914,243.8070068359375 C42.72800064086914,243.8070068359375 -25.983999252319336,246.552001953125 -25.983999252319336,246.552001953125 C-25.983999252319336,246.552001953125 -26.1560001373291,246.26600646972656 -26.483999252319336,245.70799255371094 C-26.483999252319336,245.70799255371094 22.413999557495117,243.625 22.413999557495117,243.625z"></path>
          </g>
          <g opacity="1" transform="matrix(1,0,0,1,122.58200073242188,602.780029296875)">
            <path fill="rgb(126,137,180)" fill-opacity="1" d=" M41.72800064086914,22.336000442504883 C20.7450008392334,29.14699935913086 -29.757999420166016,27.45800018310547 -41.81800079345703,22.336000442504883 C-52.93899917602539,17.611000061035156 -53.689998626708984,-23.75200080871582 -41.81800079345703,-25.9950008392334 C-25.136999130249023,-29.14699935913086 22.145999908447266,-28.79800033569336 41.72800064086914,-25.9950008392334 C53.689998626708984,-24.284000396728516 53.220001220703125,18.606000900268555 41.72800064086914,22.336000442504883z"></path>
          </g>
        </g>
        <g transform="matrix(1,0,0,1,2037.0250244140625,1790.5660400390625)" opacity="1" style="display: block;">
          <g opacity="1" transform="matrix(1,0,0,1,87.90299987792969,37.362998962402344)">
            <path fill="rgb(41,40,108)" fill-opacity="1" d=" M76.03900146484375,-24.63599967956543 C76.03900146484375,-24.63599967956543 78.12000274658203,-15.585000038146973 82.88800048828125,-0.23899999260902405 C87.65299987792969,15.107999801635742 84.68099975585938,29.56100082397461 84.68099975585938,29.56100082397461 C84.68099975585938,29.56100082397461 -74.74700164794922,37.112998962402344 -81.19999694824219,32.06399917602539 C-87.65299987792969,27.013999938964844 -84.33899688720703,8.633000373840332 -82.70800018310547,7.00600004196167 C-81.07599639892578,5.379000186920166 -60.84400177001953,-0.08699999749660492 -50.46699905395508,-6.488999843597412 C-40.090999603271484,-12.890999794006348 -4.6519999504089355,-37.112998962402344 7.320000171661377,-36.13399887084961 C19.29400062561035,-35.15599822998047 24.82200050354004,-26.312000274658203 47.558998107910156,-25.301000595092773 C70.29499816894531,-24.288999557495117 70.39299774169922,-29.054000854492188 76.03900146484375,-24.63599967956543z"></path>
          </g>
          <g opacity="1" transform="matrix(1,0,0,1,87.39199829101562,59.422000885009766)">
            <path fill="rgb(255,254,255)" fill-opacity="1" d=" M-80.68900299072266,10.005000114440918 C-74.23600006103516,15.053999900817871 85.19100189208984,7.501999855041504 85.19100189208984,7.501999855041504 C85.19100189208984,7.501999855041504 87.14199829101562,-1.9819999933242798 85.3489990234375,-13.743000030517578 C2.127000093460083,1.6749999523162842 -82.1969985961914,-15.053999900817871 -82.1969985961914,-15.053999900817871 C-83.8280029296875,-13.427000045776367 -87.14199829101562,4.954999923706055 -80.68900299072266,10.005000114440918z"></path>
          </g>
          <g opacity="1" transform="matrix(1,0,0,1,89.49299621582031,50.91999816894531)">
            <path fill="rgb(168,142,99)" fill-opacity="1" d=" M83.25,-5.241000175476074 C26.416000366210938,6.111000061035156 -36.5890007019043,3.7079999446868896 -84.2969970703125,-6.552000045776367 C2.4809999465942383,6.552000045776367 72.4530029296875,-3.6010000705718994 67.61199951171875,-3.1110000610351562 C67.822998046875,-3.1389999389648438 84.2979965209961,-5.382999897003174 83.25,-5.241000175476074z"></path>
          </g>
        </g>
        <g transform="matrix(1,0,0,1,2086.14794921875,1175.1719970703125)" opacity="1" style="display: block;">
          <g opacity="1" transform="matrix(1,0,0,1,126.39700317382812,49.87099838256836)">
            <path fill="rgb(41,41,108)" fill-opacity="1" d=" M-126.14600372314453,-13.675999641418457 C-121.36399841308594,-23.867000579833984 -116.13099670410156,-32.89500045776367 -110.41699981689453,-40.49700164794922 C-108.06400299072266,-43.62900161743164 -104.63700103759766,-46.678001403808594 -100.41999816894531,-49.62099838256836 C-89.03800201416016,-43.805999755859375 -73.29499816894531,-37.4630012512207 -51.529998779296875,-30.770000457763672 C14.119999885559082,-10.583000183105469 84.89900207519531,-21.344999313354492 114.30899810791016,-31.583999633789062 C117.2969970703125,-28.054000854492188 119.4000015258789,-24.527999877929688 120.3489990234375,-21.059999465942383 C122.72200012207031,-12.383999824523926 124.63300323486328,-1.0839999914169312 126.14600372314453,12.315999984741211 C111.46299743652344,23.23699951171875 26.121000289916992,49.62099838256836 -51.529998779296875,24.908000946044922 C-100.80899810791016,9.223999977111816 -119.1760025024414,-0.2770000100135803 -126.14600372314453,-13.675999641418457z"></path>
          </g>
        </g>
        <g transform="matrix(1,0,0,1,2075.863037109375,769.333984375)" opacity="1" style="display: block;">
          <g opacity="1" transform="matrix(1,0,0,1,140.75599670410156,238.23399353027344)">
            <path fill="rgb(115,162,65)" fill-opacity="1" d=" M16.395000457763672,-220.80099487304688 C16.395000457763672,-220.80099487304688 84.68499755859375,-224.31199645996094 112.59600067138672,-191.23800659179688 C140.50599670410156,-158.16299438476562 138.2259979248047,189.3070068359375 126.9280014038086,199.0019989013672 C115.63099670410156,208.69700622558594 18.57699966430664,237.98399353027344 -58.51100158691406,215.1750030517578 C-135.59800720214844,192.36399841308594 -140.50599670410156,161.05099487304688 -140.50599670410156,161.05099487304688 C-140.50599670410156,161.05099487304688 -119.99500274658203,-72.6259994506836 -119.99500274658203,-136.49400329589844 C-119.99500274658203,-200.36199951171875 -57.63800048828125,-237.98399353027344 16.395000457763672,-220.80099487304688z"></path>
          </g>
          <g opacity="1" transform="matrix(1,0,0,1,125.49400329589844,46.292999267578125)">
            <path fill="rgb(247,190,139)" fill-opacity="1" d=" M37.54499816894531,-28.142000198364258 C52.35499954223633,-14.529999732971191 53.50299835205078,-14.270000457763672 38.117000579833984,3.5889999866485596 C22.73200035095215,21.44700050354004 -28.208999633789062,41.75299835205078 -35.4739990234375,38.321998596191406 C-53.50299835205078,29.809999465942383 -36.724998474121094,1.3919999599456787 -24.722999572753906,-19.04800033569336 C-20.975000381469727,-25.430999755859375 22.736000061035156,-41.75299835205078 37.54499816894531,-28.142000198364258z"></path>
          </g>
        </g>
        <g transform="matrix(1,0,0,1,2168.47802734375,624.802978515625)" opacity="1" style="display: block;">
          <g opacity="1" transform="matrix(1,0,0,1,37.79600143432617,106.8740005493164)">
            <path fill="rgb(247,190,139)" fill-opacity="1" d=" M-33.558998107910156,4.3480000495910645 C-33.558998107910156,4.3480000495910645 -37.54600143432617,98.38700103759766 -33.558998107910156,102.50499725341797 C-29.57200050354004,106.6240005493164 27.57900047302246,86.71800231933594 32.5620002746582,75.04900360107422 C37.54600143432617,63.380001068115234 11.736000061035156,-106.6240005493164 11.736000061035156,-106.6240005493164 C11.736000061035156,-106.6240005493164 -33.558998107910156,4.3480000495910645 -33.558998107910156,4.3480000495910645z"></path>
          </g>
          <g opacity="1" transform="matrix(1,0,0,1,21.21299934387207,99.7750015258789)">
            <path fill="rgb(115,162,65)" fill-opacity="1" d=" M-18.700000762939453,73.45700073242188 C-8.597000122070312,71.63700103759766 0.10000000149011612,69.06700134277344 2.6540000438690186,66.18199920654297 C25.965999603271484,39.84700012207031 8.496999740600586,-2.885999917984009 10.32800006866455,-13.99899959564209 C13.975000381469727,-36.11399841308594 21.40399932861328,-54.38600158691406 17.679000854492188,-73.45700073242188 C17.679000854492188,-73.45700073242188 -16.97599983215332,11.446999549865723 -16.97599983215332,11.446999549865723 C-16.97599983215332,11.446999549865723 -18.417999267578125,45.44900131225586 -18.700000762939453,73.45700073242188z"></path>
          </g>
        </g>
        <g transform="matrix(1,0,0,1,2234.929931640625,1210.1629638671875)" opacity="1" style="display: block;">
          <g opacity="1" transform="matrix(1,0,0,1,111.97599792480469,72.21900177001953)">
            <path fill="rgb(96,203,184)" fill-opacity="1" d=" M-100.2699966430664,71.96800231933594 C-100.2699966430664,71.96800231933594 100.26899719238281,71.96800231933594 100.26899719238281,71.96800231933594 C104.06600189208984,71.96800231933594 107.14299774169922,68.89099884033203 107.14299774169922,65.09500122070312 C107.14299774169922,65.09500122070312 107.14299774169922,-65.09500122070312 107.14299774169922,-65.09500122070312 C107.14299774169922,-68.89099884033203 104.06600189208984,-71.96800231933594 100.26899719238281,-71.96800231933594 C100.26899719238281,-71.96800231933594 -100.2699966430664,-71.96800231933594 -100.2699966430664,-71.96800231933594 C-104.06700134277344,-71.96800231933594 -107.14299774169922,-68.89099884033203 -107.14299774169922,-65.09500122070312 C-107.14299774169922,-65.09500122070312 -107.14299774169922,65.09500122070312 -107.14299774169922,65.09500122070312 C-107.14299774169922,68.89099884033203 -104.06700134277344,71.96800231933594 -100.2699966430664,71.96800231933594z"></path>
          </g>
          <g opacity="1" transform="matrix(1,0,0,1,103.75900268554688,72.21800231933594)">
            <path fill="rgb(255,254,255)" fill-opacity="1" d=" M-90.7509994506836,55.39099884033203 C-90.7509994506836,55.39099884033203 90.7509994506836,55.39099884033203 90.7509994506836,55.39099884033203 C90.7509994506836,55.39099884033203 90.7509994506836,-55.39099884033203 90.7509994506836,-55.39099884033203 C90.7509994506836,-55.39099884033203 -90.7509994506836,-55.39099884033203 -90.7509994506836,-55.39099884033203 C-90.7509994506836,-55.39099884033203 -90.7509994506836,55.39099884033203 -90.7509994506836,55.39099884033203z"></path>
          </g>
          <g opacity="1" transform="matrix(1,0,0,1,9.819000244140625,72.21900177001953)">
            <path fill="rgb(241,175,50)" fill-opacity="1" d=" M-5.691999912261963,31.67099952697754 C-5.691999912261963,31.67099952697754 5.691999912261963,31.67099952697754 5.691999912261963,31.67099952697754 C7.833000183105469,31.67099952697754 9.569000244140625,29.93600082397461 9.569000244140625,27.795000076293945 C9.569000244140625,27.795000076293945 9.569000244140625,-27.79400062561035 9.569000244140625,-27.79400062561035 C9.569000244140625,-29.934999465942383 7.833000183105469,-31.67099952697754 5.691999912261963,-31.67099952697754 C5.691999912261963,-31.67099952697754 -5.691999912261963,-31.67099952697754 -5.691999912261963,-31.67099952697754 C-7.833000183105469,-31.67099952697754 -9.569000244140625,-29.934999465942383 -9.569000244140625,-27.79400062561035 C-9.569000244140625,-27.79400062561035 -9.569000244140625,27.795000076293945 -9.569000244140625,27.795000076293945 C-9.569000244140625,29.93600082397461 -7.833000183105469,31.67099952697754 -5.691999912261963,31.67099952697754z"></path>
          </g>
        </g>
        <g transform="matrix(1,0,0,1,2254.054931640625,786.5199584960938)" opacity="1" style="display: block;">
          <g opacity="1" transform="matrix(1,0,0,1,51.369998931884766,221.12100219726562)">
            <path fill="rgb(99,149,27)" fill-opacity="1" d=" M-12.177000045776367,131.08799743652344 C-6.142000198364258,114.30999755859375 -12.60099983215332,60.944000244140625 -19.469999313354492,22.336999893188477 C-24.84600067138672,23.364999771118164 -30.016000747680664,24.586999893188477 -34.900001525878906,25.996999740600586 C-43.150001525878906,0.46000000834465027 -50.41899871826172,-65.81700134277344 -50.6619987487793,-107.48400115966797 C-51.119998931884766,-185.6439971923828 -11.550000190734863,-208.375 -11.550000190734863,-208.375 C-3.7090001106262207,-210.16600036621094 8.835000038146973,-202.78599548339844 28.45599937438965,-182.36099243164062 C45.62200164794922,-135.42999267578125 47.0629997253418,41.382999420166016 42.13600158691406,128.36199951171875 C40.55799865722656,156.21800231933594 -17.756000518798828,146.59800720214844 -12.177000045776367,131.08799743652344z"></path>
          </g>
          <g opacity="1" transform="matrix(1,0,0,1,106.21099853515625,381.9209899902344)">
            <path fill="rgb(247,190,139)" fill-opacity="1" d=" M-50.54899978637695,-29.714000701904297 C-57.82600021362305,-7.568999767303467 -21.802000045776367,16.52899932861328 6.065999984741211,8.744000434875488 C29.929000854492188,2.078000068664551 47.54399871826172,-32.23400115966797 29.861000061035156,-63.34199905395508 C7.113999843597412,-103.35800170898438 40.74800109863281,-172.22900390625 22.982999801635742,-216.72999572753906 C7.079999923706055,-187.09300231933594 -68.19499969482422,-205.61199951171875 -63.87900161743164,-173.0919952392578 C-57.0099983215332,-145.31300354003906 -42.957000732421875,-52.81800079345703 -50.54899978637695,-29.714000701904297z"></path>
          </g>
          <g opacity="1" transform="matrix(1,0,0,1,80.52100372314453,123.68399810791016)">
            <path fill="rgb(115,162,65)" fill-opacity="1" d=" M-42.79999923706055,-110.20600128173828 C-42.79999923706055,-110.20600128173828 -66.0260009765625,-92.52999877929688 -65.60700225830078,-14.369999885559082 C-65.38500213623047,27.297000885009766 -53.15399932861328,97.89700317382812 -45.617000579833984,123.43399810791016 C-14.336000442504883,113.5479965209961 29.777000427246094,112.90699768066406 61.72100067138672,123.43399810791016 C66.0260009765625,89.33399963378906 57.33100128173828,16.565000534057617 51.909000396728516,-6.945000171661377 C38.57600021362305,-64.76000213623047 -9.609999656677246,-123.43399810791016 -42.79999923706055,-110.20600128173828z"></path>
          </g>
        </g>
        <g transform="matrix(1,0,0,1,2254.05615234375,786.52001953125)" opacity="1" style="display: block;">
          <g opacity="1" transform="matrix(1,0,0,1,51.369998931884766,221.12100219726562)">
            <path fill="rgb(99,149,27)" fill-opacity="1" d=" M-12.177000045776367,131.08799743652344 C-9.89900016784668,124.75399780273438 42.36199951171875,171.39700317382812 35.750999450683594,177.07000732421875 C31.222999572753906,180.95599365234375 22.365999221801758,205.3280029296875 -0.4699999988079071,210.16600036621094 C-6.4039998054504395,186.86000061035156 -17.756000518798828,146.59800720214844 -12.177000045776367,131.08799743652344z"></path>
          </g>
          <g opacity="1" transform="matrix(1,0,0,1,106.21099853515625,381.9209899902344)">
            <path fill="rgb(247,190,139)" fill-opacity="1" d=" M-50.54899978637695,-29.714000701904297 C-64.05699920654297,11.394000053405762 -16.488000869750977,100.31300354003906 -35.808998107910156,128.76800537109375 C-55.12900161743164,157.22300720214844 -45.40800094604492,187.10299682617188 -21.993999481201172,201.91700744628906 C1.4199999570846558,216.72999572753906 30.520999908447266,195.97000122070312 28.176000595092773,184.69200134277344 C25.82900047302246,173.4149932861328 19.513999938964844,143.05299377441406 16.625,129.1739959716797 C14.045000076293945,116.76699829101562 57.275001525878906,26.614999771118164 39.11399841308594,-40.54499816894531 C38.029998779296875,-44.55400085449219 28.82200050354004,-69.54399871826172 -8.222000122070312,-66.99299621582031 C-45.26599884033203,-64.44200134277344 -48.4119987487793,-36.21799850463867 -50.54899978637695,-29.714000701904297z"></path>
          </g>
        </g>
        <g transform="matrix(0.999469518661499,0.03256895765662193,-0.03256895765662193,0.999469518661499,2118.9169921875,594.283203125)" opacity="1" style="display: block;">
          <g opacity="1" transform="matrix(1,0,0,1,57.04399871826172,105.01699829101562)">
            <path fill="rgb(247,190,139)" fill-opacity="1" d=" M-30.714000701904297,-63.45100021362305 C-30.714000701904297,-63.45100021362305 -40.51599884033203,-29.700000762939453 -40.51599884033203,-2.0250000953674316 C-40.51599884033203,25.650999069213867 -39.862998962402344,73.57599639892578 -20.259000778198242,73.57599639892578 C-0.6539999842643738,73.57599639892578 27.445999145507812,68.1760025024414 33.98099899291992,29.025999069213867 C40.51599884033203,-10.12399959564209 33.98099899291992,-53.32600021362305 14.376999855041504,-63.45100021362305 C-5.229000091552734,-73.57599639892578 -30.714000701904297,-63.45100021362305 -30.714000701904297,-63.45100021362305z"></path>
          </g>
          <g opacity="1" transform="matrix(1,0,0,1,85.66400146484375,93.80500030517578)">
            <path fill="rgb(56,6,123)" fill-opacity="1" d=" M-51.68000030517578,-27.304000854492188 C-46.40700149536133,-29.479999542236328 -40.952999114990234,-24.770999908447266 -41.96200180053711,-18.99799919128418 C-43.57699966430664,-9.746000289916992 -43.18000030517578,0.3889999985694885 -34.52399826049805,2.503000020980835 C-17.86400032043457,6.570000171661377 -9.98799991607666,2.503999948501587 -7.26200008392334,5.320000171661377 C-4.534999847412109,8.135000228881836 -15.13700008392334,23.155000686645508 -7.26200008392334,25.969999313354492 C0.6150000095367432,28.785999298095703 4.855000019073486,1.878000020980835 11.821999549865723,1.878000020980835 C18.788999557495117,1.878000020980835 20.304000854492188,40.67599868774414 11.821999549865723,49.4370002746582 C3.3410000801086426,58.198001861572266 13.034000396728516,70.08799743652344 24.243000030517578,70.08799743652344 C35.45000076293945,70.08799743652344 22.825000762939453,84.16799926757812 37.92300033569336,88.86199951171875 C53.01900100708008,93.55500030517578 65.13600158691406,93.55500030517578 69.98300170898438,74.46800231933594 C74.83000183105469,55.38199996948242 69.98300170898438,44.74300003051758 69.98300170898438,44.74300003051758 C69.98300170898438,44.74300003051758 85.41400146484375,26.700000762939453 81.49400329589844,8.866000175476074 C79.31500244140625,-1.0479999780654907 69.28299713134766,-18.8799991607666 69.28299713134766,-18.8799991607666 C69.28299713134766,-18.8799991607666 61.50199890136719,-40.05099868774414 59.38100051879883,-52.25299835205078 C57.2599983215332,-64.45600128173828 27.218000411987305,-76.65799713134766 6.646999835968018,-78.8479995727539 C-13.925999641418457,-81.03800201416016 -3.625999927520752,-93.55500030517578 -20.89299964904785,-93.55500030517578 C-38.159000396728516,-93.55500030517578 -40.53200149536133,-70.75299835205078 -40.53200149536133,-70.75299835205078 C-40.53200149536133,-70.75299835205078 -65.18599700927734,-85.49199676513672 -66.33000183105469,-84.79399871826172 C-80.67900085449219,-76.0530014038086 -68.75399780273438,-60.70100021362305 -68.75399780273438,-60.70100021362305 C-68.75399780273438,-60.70100021362305 -80.56800079345703,-59.44900131225586 -82.99199676513672,-44.117000579833984 C-85.41400146484375,-28.785999298095703 -75.41799926757812,-19.39900016784668 -59.66600036621094,-24.405000686645508 C-56.683998107910156,-25.35300064086914 -54.02799987792969,-26.336000442504883 -51.68000030517578,-27.304000854492188z"></path>
          </g>
          <g opacity="1" transform="matrix(1,0,0,1,88.45899963378906,49.79600143432617)">
            <path fill="rgb(45,4,99)" fill-opacity="1" d=" M-71.53700256347656,-39.05699920654297 C-68.4990005493164,-38.62200164794922 -64.49800109863281,-37.65999984741211 -59.70600128173828,-36.23099899291992 C-52.327999114990234,-32.125 -43.32699966430664,-26.743999481201172 -43.32699966430664,-26.743999481201172 C-43.32699966430664,-26.743999481201172 -11.144000053405762,-17.73699951171875 7.298999786376953,-8.946999549865723 C30.934999465942383,2.318000078201294 51.64799880981445,13.618000030517578 65.55400085449219,22.523000717163086 C66.13300323486328,24.160999298095703 66.48699951171875,25.128000259399414 66.48699951171875,25.128000259399414 C66.48699951171875,25.128000259399414 70.1780014038086,31.684999465942383 73.56700134277344,39.05699920654297 C58.92599868774414,35.858001708984375 30.333999633789062,24.83300018310547 -1.5570000410079956,9.633999824523926 C-37.569000244140625,-7.53000020980835 -73.56600189208984,-37.33599853515625 -71.53700256347656,-39.05699920654297z"></path>
          </g>
          <g opacity="1" transform="matrix(1,0,0,1,96.11199951171875,104.89099884033203)">
            <path fill="rgb(247,190,139)" fill-opacity="1" d=" M-9.562999725341797,-11.315999984741211 C-9.562999725341797,-11.315999984741211 -1.2319999933242798,-26.65399932861328 6.184999942779541,-18.09600067138672 C13.60200023651123,-9.53600025177002 9.708000183105469,26.65399932861328 -1.6890000104904175,26.65399932861328 C-13.085000038146973,26.65399932861328 -13.60200023651123,-1.6169999837875366 -9.562999725341797,-11.315999984741211z"></path>
          </g>
        </g>
        <g transform="matrix(0.999469518661499,0.03256895765662193,-0.03256895765662193,0.999469518661499,2102.403564453125,562.2503662109375)" opacity="1" style="display: block;">
          <g opacity="1" transform="matrix(1,0,0,1,122.06500244140625,53.32600021362305)">
            <path fill="rgb(99,149,27)" fill-opacity="1" d=" M-66.13600158691406,-7.033999919891357 C-50.689998626708984,-39.44300079345703 -11.64900016784668,-53.07600021362305 21.06399917602539,-37.486000061035156 C53.77799987792969,-21.893999099731445 67.7750015258789,17.017000198364258 52.32899856567383,49.42599868774414 C51.73400115966797,50.67399978637695 51.09400177001953,51.88399887084961 50.43000030517578,53.07600021362305 C50.43000030517578,53.07600021362305 -67.7760009765625,-3.259999990463257 -67.7760009765625,-3.259999990463257 C-67.26799774169922,-4.526000022888184 -66.73100280761719,-5.784999847412109 -66.13600158691406,-7.033999919891357z"></path>
          </g>
          <g opacity="1" transform="matrix(1,0,0,1,113.5009994506836,53.32600021362305)">
            <path fill="rgb(99,149,27)" fill-opacity="1" d=" M-33.00199890136719,7.752999782562256 C-32.49399948120117,6.48799991607666 -31.95800018310547,5.228000164031982 -31.363000869750977,3.9800000190734863 C-18.461999893188477,-23.091999053955078 10.902999877929688,-37.0629997253418 39.29100036621094,-31.8439998626709 C36.284000396728516,-33.95800018310547 33.060001373291016,-35.849998474121094 29.628000259399414,-37.48500061035156 C-3.0850000381469727,-53.07600021362305 -42.125999450683594,-39.44200134277344 -57.571998596191406,-7.033999919891357 C-58.16699981689453,-5.785999774932861 -58.702999114990234,-4.525000095367432 -59.21099853515625,-3.259999990463257 C-59.21099853515625,-3.259999990463257 58.99399948120117,53.07600021362305 58.99399948120117,53.07600021362305 C59.21099853515625,52.6879997253418 -33.00199890136719,7.752999782562256 -33.00199890136719,7.752999782562256z"></path>
          </g>
          <g opacity="1" transform="matrix(1,0,0,1,87.06700134277344,66.48899841308594)">
            <path fill="rgb(249,174,39)" fill-opacity="1" d=" M-85.55799865722656,-39.97600173950195 C-84.30000305175781,-42.61600112915039 -22.7549991607666,-17.51300048828125 16.591999053955078,1.2400000095367432 C55.939998626708984,19.993000030517578 86.81700134277344,37.33599853515625 85.55899810791016,39.974998474121094 C84.3010025024414,42.6150016784668 19.038999557495117,27.288999557495117 -20.30900001525879,8.53600025177002 C-59.65800094604492,-10.217000007629395 -86.81700134277344,-37.33599853515625 -85.55799865722656,-39.97600173950195z"></path>
          </g>
        </g>
        <g transform="matrix(0.9961946606636047,0.08715573698282242,-0.08715573698282242,0.9961946606636047,1666.125732421875,665.8128662109375)" opacity="1" style="display: none;">
          <g opacity="1" transform="matrix(1,0,0,1,169.81700134277344,80.1780014038086)">
            <path fill="rgb(11,91,102)" fill-opacity="1" d=" M-8.49899959564209,-5.113999843597412 C-12.38599967956543,4.678999900817871 -4.304999828338623,14.177000045776367 4.15500020980835,9.968000411987305 C6.146999835968018,8.97700023651123 7.664999961853027,7.196000099182129 8.487000465393066,5.130000114440918 C12.38599967956543,-4.668000221252441 4.294000148773193,-14.175999641418457 -4.171000003814697,-9.95300006866455 C-6.160999774932861,-8.961000442504883 -7.677999973297119,-7.181000232696533 -8.49899959564209,-5.113999843597412z"></path>
          </g>
          <g opacity="1" transform="matrix(1,0,0,1,169.32000732421875,42.04100036621094)">
            <path fill="rgb(11,91,102)" fill-opacity="1" d=" M-2.756999969482422,37.73400115966797 C-2.756999969482422,37.73400115966797 0.13500000536441803,41.79100036621094 0.13500000536441803,41.79100036621094 C0.13500000536441803,41.79100036621094 1.8869999647140503,36.93600082397461 1.8869999647140503,36.93600082397461 C4.171999931335449,30.604999542236328 23.586999893188477,-25.301000595092773 2.1500000953674316,-38.020999908447266 C-4.175000190734863,-41.79100036621094 -10.147000312805176,-40.571998596191406 -14.217000007629395,-34.72200012207031 C-23.586999893188477,-21.253000259399414 -20.674999237060547,12.595000267028809 -2.756999969482422,37.73400115966797z M-9.946000099182129,-30.746999740600586 C-7.96999979019165,-33.584999084472656 -5.520999908447266,-34.470001220703125 -2.50600004196167,-33.409000396728516 C-1.8170000314712524,-33.16699981689453 -1.0980000495910645,-32.82400131225586 -0.3490000069141388,-32.38100051879883 C12.673999786376953,-24.64900016784668 4.456999778747559,10.987000465393066 -1.4240000247955322,29.334999084472656 C-15.743000030517578,6.099999904632568 -16.32900047302246,-21.57200050354004 -9.946000099182129,-30.746999740600586z"></path>
          </g>
          <g opacity="1" transform="matrix(1,0,0,1,199.4010009765625,52.680999755859375)">
            <path fill="rgb(11,91,102)" fill-opacity="1" d=" M-30.1299991607666,23.98699951171875 C-30.1299991607666,23.98699951171875 -25.660999298095703,24.954999923706055 -25.660999298095703,24.954999923706055 C-21.59000015258789,25.83300018310547 -17.533000946044922,26.2450008392334 -13.57699966430664,26.2450008392334 C6.317999839782715,26.2450008392334 23.69300079345703,15.961999893188477 27.895999908447266,4.091000080108643 C30.128999710083008,-2.2179999351501465 28.34600067138672,-8.217000007629395 23.0049991607666,-12.37600040435791 C5.1579999923706055,-26.2450008392334 -24.034000396728516,15.097999572753906 -27.302000045776367,19.867000579833984 C-27.302000045776367,19.867000579833984 -30.1299991607666,23.98699951171875 -30.1299991607666,23.98699951171875z M-19.91200065612793,19.520000457763672 C-11.571999549865723,8.430999755859375 3.8940000534057617,-8.864999771118164 14.710000038146973,-8.864999771118164 C16.62299919128418,-8.864999771118164 18.38800048828125,-8.32699966430664 19.945999145507812,-7.111999988555908 C23.106000900268555,-4.651000022888184 24.04800033569336,-1.7730000019073486 22.822999954223633,1.687999963760376 C19.493999481201172,11.093999862670898 1.2630000114440918,22.065000534057617 -19.91200065612793,19.520000457763672z"></path>
          </g>
          <g opacity="1" transform="matrix(1,0,0,1,161.20399475097656,202.48699951171875)">
            <path fill="rgb(239,190,108)" fill-opacity="1" d=" M-134.3249969482422,121.45500183105469 C-134.3249969482422,121.45500183105469 134.322998046875,121.45500183105469 134.322998046875,121.45500183105469 C149.031005859375,121.45500183105469 160.95399475097656,109.53199768066406 160.95399475097656,94.8239974975586 C160.95399475097656,94.8239974975586 160.95399475097656,-94.82499694824219 160.95399475097656,-94.82499694824219 C160.95399475097656,-109.53199768066406 149.03199768066406,-121.45500183105469 134.3249969482422,-121.45500183105469 C134.3249969482422,-121.45500183105469 -134.32400512695312,-121.45500183105469 -134.32400512695312,-121.45500183105469 C-149.031005859375,-121.45500183105469 -160.95399475097656,-109.53199768066406 -160.95399475097656,-94.82499694824219 C-160.95399475097656,-94.82499694824219 -160.95399475097656,94.82599639892578 -160.95399475097656,94.82599639892578 C-160.95399475097656,109.53299713134766 -149.031005859375,121.45500183105469 -134.3249969482422,121.45500183105469z"></path>
          </g>
          <g opacity="1" transform="matrix(1,0,0,1,61.0880012512207,202.48699951171875)">
            <path fill="rgb(239,190,108)" fill-opacity="1" d=" M-39.77299880981445,-121.45500183105469 C-39.77299880981445,-121.45500183105469 60.8380012512207,-121.45500183105469 60.8380012512207,-121.45500183105469 C60.8380012512207,-121.45500183105469 60.8380012512207,121.45500183105469 60.8380012512207,121.45500183105469 C60.8380012512207,121.45500183105469 -39.77299880981445,121.45500183105469 -39.77299880981445,121.45500183105469 C-51.40599822998047,121.45500183105469 -60.8380012512207,106.37999725341797 -60.8380012512207,87.79100036621094 C-60.8380012512207,87.79100036621094 -60.8380012512207,-87.79000091552734 -60.8380012512207,-87.79000091552734 C-60.8380012512207,-106.38300323486328 -51.40599822998047,-121.45500183105469 -39.77299880981445,-121.45500183105469z"></path>
          </g>
          <g opacity="1" transform="matrix(1,0,0,1,237.8520050048828,202.48699951171875)">
            <path fill="rgb(11,91,102)" fill-opacity="1" d=" M-25.43899917602539,-121.45500183105469 C-25.43899917602539,-121.45500183105469 -17.5,-121.45500183105469 -17.5,-121.45500183105469 C25.43899917602539,-43.935001373291016 -0.8679999709129333,91.8489990234375 -7.341000080108643,121.45500183105469 C-7.341000080108643,121.45500183105469 -13.538000106811523,121.45500183105469 -13.538000106811523,121.45500183105469 C-9.095000267028809,101.50800323486328 21.582000732421875,-46.18000030517578 -25.072999954223633,-120.73999786376953 C-25.211000442504883,-120.96399688720703 -25.334999084472656,-121.2040023803711 -25.43899917602539,-121.45500183105469z"></path>
          </g>
          <g opacity="1" transform="matrix(1,0,0,1,60.44200134277344,202.48699951171875)">
            <path fill="rgb(11,91,102)" fill-opacity="1" d=" M3.500999927520752,120.53700256347656 C3.5399999618530273,120.84600067138672 3.559000015258789,121.1520004272461 3.559000015258789,121.45500183105469 C3.559000015258789,121.45500183105469 -2.3259999752044678,121.45500183105469 -2.3259999752044678,121.45500183105469 C-19.652999877929688,-16.93899917602539 -0.5339999794960022,-90.14800262451172 12.37600040435791,-121.45500183105469 C12.37600040435791,-121.45500183105469 19.652999877929688,-121.45500183105469 19.652999877929688,-121.45500183105469 C7.9120001792907715,-95.28800201416016 -14.619999885559082,-23.160999298095703 3.500999927520752,120.53700256347656z"></path>
          </g>
        </g>
      </g>
      <g transform="matrix(0.6363574266433716,0.7713943123817444,-0.7713943123817444,0.6363574266433716,1691.7578125,975.255126953125)" opacity="1" style="display: block;">
        <g opacity="1" transform="matrix(1,0,0,1,169.81700134277344,80.1780014038086)">
          <path fill="rgb(11,91,102)" fill-opacity="1" d=" M-8.49899959564209,-5.113999843597412 C-12.38599967956543,4.678999900817871 -4.304999828338623,14.177000045776367 4.15500020980835,9.968000411987305 C6.146999835968018,8.97700023651123 7.664999961853027,7.196000099182129 8.487000465393066,5.130000114440918 C12.38599967956543,-4.668000221252441 4.294000148773193,-14.175999641418457 -4.171000003814697,-9.95300006866455 C-6.160999774932861,-8.961000442504883 -7.677999973297119,-7.181000232696533 -8.49899959564209,-5.113999843597412z"></path>
        </g>
        <g opacity="1" transform="matrix(1,0,0,1,169.32000732421875,42.04100036621094)">
          <path fill="rgb(11,91,102)" fill-opacity="1" d=" M-2.756999969482422,37.73400115966797 C-2.756999969482422,37.73400115966797 0.13500000536441803,41.79100036621094 0.13500000536441803,41.79100036621094 C0.13500000536441803,41.79100036621094 1.8869999647140503,36.93600082397461 1.8869999647140503,36.93600082397461 C4.171999931335449,30.604999542236328 23.586999893188477,-25.301000595092773 2.1500000953674316,-38.020999908447266 C-4.175000190734863,-41.79100036621094 -10.147000312805176,-40.571998596191406 -14.217000007629395,-34.72200012207031 C-23.586999893188477,-21.253000259399414 -20.674999237060547,12.595000267028809 -2.756999969482422,37.73400115966797z M-9.946000099182129,-30.746999740600586 C-7.96999979019165,-33.584999084472656 -5.520999908447266,-34.470001220703125 -2.50600004196167,-33.409000396728516 C-1.8170000314712524,-33.16699981689453 -1.0980000495910645,-32.82400131225586 -0.3490000069141388,-32.38100051879883 C12.673999786376953,-24.64900016784668 4.456999778747559,10.987000465393066 -1.4240000247955322,29.334999084472656 C-15.743000030517578,6.099999904632568 -16.32900047302246,-21.57200050354004 -9.946000099182129,-30.746999740600586z"></path>
        </g>
        <g opacity="1" transform="matrix(1,0,0,1,199.4010009765625,52.680999755859375)">
          <path fill="rgb(11,91,102)" fill-opacity="1" d=" M-30.1299991607666,23.98699951171875 C-30.1299991607666,23.98699951171875 -25.660999298095703,24.954999923706055 -25.660999298095703,24.954999923706055 C-21.59000015258789,25.83300018310547 -17.533000946044922,26.2450008392334 -13.57699966430664,26.2450008392334 C6.317999839782715,26.2450008392334 23.69300079345703,15.961999893188477 27.895999908447266,4.091000080108643 C30.128999710083008,-2.2179999351501465 28.34600067138672,-8.217000007629395 23.0049991607666,-12.37600040435791 C5.1579999923706055,-26.2450008392334 -24.034000396728516,15.097999572753906 -27.302000045776367,19.867000579833984 C-27.302000045776367,19.867000579833984 -30.1299991607666,23.98699951171875 -30.1299991607666,23.98699951171875z M-19.91200065612793,19.520000457763672 C-11.571999549865723,8.430999755859375 3.8940000534057617,-8.864999771118164 14.710000038146973,-8.864999771118164 C16.62299919128418,-8.864999771118164 18.38800048828125,-8.32699966430664 19.945999145507812,-7.111999988555908 C23.106000900268555,-4.651000022888184 24.04800033569336,-1.7730000019073486 22.822999954223633,1.687999963760376 C19.493999481201172,11.093999862670898 1.2630000114440918,22.065000534057617 -19.91200065612793,19.520000457763672z"></path>
        </g>
        <g opacity="1" transform="matrix(1,0,0,1,161.20399475097656,202.48699951171875)">
          <path fill="rgb(239,190,108)" fill-opacity="1" d=" M-134.3249969482422,121.45500183105469 C-134.3249969482422,121.45500183105469 134.322998046875,121.45500183105469 134.322998046875,121.45500183105469 C149.031005859375,121.45500183105469 160.95399475097656,109.53199768066406 160.95399475097656,94.8239974975586 C160.95399475097656,94.8239974975586 160.95399475097656,-94.82499694824219 160.95399475097656,-94.82499694824219 C160.95399475097656,-109.53199768066406 149.03199768066406,-121.45500183105469 134.3249969482422,-121.45500183105469 C134.3249969482422,-121.45500183105469 -134.32400512695312,-121.45500183105469 -134.32400512695312,-121.45500183105469 C-149.031005859375,-121.45500183105469 -160.95399475097656,-109.53199768066406 -160.95399475097656,-94.82499694824219 C-160.95399475097656,-94.82499694824219 -160.95399475097656,94.82599639892578 -160.95399475097656,94.82599639892578 C-160.95399475097656,109.53299713134766 -149.031005859375,121.45500183105469 -134.3249969482422,121.45500183105469z"></path>
        </g>
        <g opacity="1" transform="matrix(1,0,0,1,61.0880012512207,202.48699951171875)">
          <path fill="rgb(239,190,108)" fill-opacity="1" d=" M-39.77299880981445,-121.45500183105469 C-39.77299880981445,-121.45500183105469 60.8380012512207,-121.45500183105469 60.8380012512207,-121.45500183105469 C60.8380012512207,-121.45500183105469 60.8380012512207,121.45500183105469 60.8380012512207,121.45500183105469 C60.8380012512207,121.45500183105469 -39.77299880981445,121.45500183105469 -39.77299880981445,121.45500183105469 C-51.40599822998047,121.45500183105469 -60.8380012512207,106.37999725341797 -60.8380012512207,87.79100036621094 C-60.8380012512207,87.79100036621094 -60.8380012512207,-87.79000091552734 -60.8380012512207,-87.79000091552734 C-60.8380012512207,-106.38300323486328 -51.40599822998047,-121.45500183105469 -39.77299880981445,-121.45500183105469z"></path>
        </g>
        <g opacity="1" transform="matrix(1,0,0,1,237.8520050048828,202.48699951171875)">
          <path fill="rgb(11,91,102)" fill-opacity="1" d=" M-25.43899917602539,-121.45500183105469 C-25.43899917602539,-121.45500183105469 -17.5,-121.45500183105469 -17.5,-121.45500183105469 C25.43899917602539,-43.935001373291016 -0.8679999709129333,91.8489990234375 -7.341000080108643,121.45500183105469 C-7.341000080108643,121.45500183105469 -13.538000106811523,121.45500183105469 -13.538000106811523,121.45500183105469 C-9.095000267028809,101.50800323486328 21.582000732421875,-46.18000030517578 -25.072999954223633,-120.73999786376953 C-25.211000442504883,-120.96399688720703 -25.334999084472656,-121.2040023803711 -25.43899917602539,-121.45500183105469z"></path>
        </g>
        <g opacity="1" transform="matrix(1,0,0,1,60.44200134277344,202.48699951171875)">
          <path fill="rgb(11,91,102)" fill-opacity="1" d=" M3.500999927520752,120.53700256347656 C3.5399999618530273,120.84600067138672 3.559000015258789,121.1520004272461 3.559000015258789,121.45500183105469 C3.559000015258789,121.45500183105469 -2.3259999752044678,121.45500183105469 -2.3259999752044678,121.45500183105469 C-19.652999877929688,-16.93899917602539 -0.5339999794960022,-90.14800262451172 12.37600040435791,-121.45500183105469 C12.37600040435791,-121.45500183105469 19.652999877929688,-121.45500183105469 19.652999877929688,-121.45500183105469 C7.9120001792907715,-95.28800201416016 -14.619999885559082,-23.160999298095703 3.500999927520752,120.53700256347656z"></path>
        </g>
      </g>
      <g transform="matrix(0.7011673450469971,0.7129967212677002,-0.7129967212677002,0.7011673450469971,1332.9765625,769.9763793945312)" opacity="1" style="display: block;">
        <g opacity="1" transform="matrix(1,0,0,1,315.0950012207031,146.41200256347656)">
          <path fill="rgb(250,185,168)" fill-opacity="1" d=" M149.23899841308594,-7.158999919891357 C130.29100036621094,4.331999778747559 131.4080047607422,5.703000068664551 128.93800354003906,7.116000175476074 C126.01799774169922,8.782999992370605 80.98799896240234,6.810999870300293 80.98799896240234,6.810999870300293 C80.98799896240234,6.810999870300293 -51.77199935913086,1.8539999723434448 -58.93000030517578,1.340999960899353 C-58.93000030517578,1.340999960899353 -181.36199951171875,-58.04899978637695 -181.36199951171875,-58.04899978637695 C-181.36199951171875,-58.04899978637695 -229.60699462890625,-7.089000225067139 -229.60699462890625,-7.089000225067139 C-229.60699462890625,-7.089000225067139 -94.60600280761719,54.0629997253418 -86.95999908447266,56.055999755859375 C-79.31099700927734,58.04899978637695 101.16799926757812,44.42900085449219 117.09200286865234,43.73099899291992 C117.09200286865234,43.73099899291992 136.3300018310547,49.698001861572266 148.5399932861328,53.0620002746582 C160.75100708007812,56.422000885009766 173.9320068359375,54.3129997253418 177.52200317382812,54.74599838256836 C178.05299377441406,54.810001373291016 190.11300659179688,55.56800079345703 205.25900268554688,52.654998779296875 C218.31100463867188,50.14699935913086 204.81100463867188,46.73099899291992 204.81100463867188,46.73099899291992 C204.81100463867188,46.73099899291992 179.81300354003906,47.17100143432617 180.13800048828125,45.250999450683594 C180.38900756835938,43.77399826049805 194.04600524902344,44.31399917602539 208.51400756835938,41.68299865722656 C212.23699951171875,41.005001068115234 215.906005859375,40.32400131225586 219.27200317382812,39.676998138427734 C228.1060028076172,37.96200180053711 229.60699462890625,32.22100067138672 220.08299255371094,32.58399963378906 C216.71800231933594,32.70899963378906 211.13499450683594,33.05400085449219 207.18600463867188,33.847999572753906 C202.91900634765625,34.70199966430664 198.72900390625,34.150001525878906 195.03500366210938,34.33599853515625 C187.6999969482422,34.70800018310547 182.7689971923828,35.058998107910156 182.9219970703125,34.7599983215332 C183.11900329589844,34.36600112915039 181.20799255371094,33.457000732421875 185.13499450683594,32.61800003051758 C189.85699462890625,31.613000869750977 200.35299682617188,31.625999450683594 207.1840057373047,29.62299919128418 C211.05599975585938,28.490999221801758 219.29800415039062,26.594999313354492 219.29800415039062,26.594999313354492 C219.29800415039062,26.594999313354492 229.0709991455078,20.759000778198242 229.0050048828125,19.985000610351562 C228.6439971923828,15.786999702453613 221.66299438476562,17.780000686645508 216.59800720214844,19.989999771118164 C212.6490020751953,19.79199981689453 204.03900146484375,22.023000717163086 204.03900146484375,22.023000717163086 C204.03900146484375,22.023000717163086 185.6219940185547,22.746000289916992 185.50599670410156,20.2189998626709 C185.4600067138672,19.25200080871582 196.0850067138672,18.534000396728516 207.04299926757812,15.048999786376953 C219.59100341796875,11.055999755859375 222.69900512695312,5.431000232696533 222.3419952392578,3.203000068664551 C221.79600524902344,-0.20900000631809235 214.72799682617188,2.989000082015991 214.72799682617188,2.989000082015991 C214.72799682617188,2.989000082015991 205.04800415039062,7.400000095367432 202.35400390625,7.890999794006348 C199.19500732421875,8.468000411987305 157.81199645996094,9.222000122070312 157.91200256347656,6.816999912261963 C158.01100158691406,4.4120001792907715 162.0050048828125,1.25600004196167 164.04400634765625,0.42800000309944153 C166.08099365234375,-0.4020000100135803 169.96400451660156,-1.5219999551773071 172.0030059814453,-2.3459999561309814 C174.0399932861328,-3.1760001182556152 175.44200134277344,-7.390999794006348 174.61599731445312,-9.890999794006348 C173.78900146484375,-12.394000053405762 164.78399658203125,-11.045000076293945 164.78399658203125,-11.045000076293945 C164.78399658203125,-11.045000076293945 154.70899963378906,-10.47700023651123 149.23899841308594,-7.158999919891357z"></path>
        </g>
        <g opacity="1" transform="matrix(1,0,0,1,92.21399688720703,97.10399627685547)">
          <path fill="rgb(167,224,213)" fill-opacity="1" d=" M29.530000686645508,96.85399627685547 C29.530000686645508,96.85399627685547 53.62099838256836,66.46900177001953 62.018001556396484,54.16600036621094 C78.31800079345703,30.28499984741211 91.96399688720703,3.371999979019165 91.96399688720703,3.371999979019165 C91.96399688720703,3.371999979019165 24.841999053955078,-35.2869987487793 -0.1720000058412552,-48.46900177001953 C-91.96499633789062,-96.85399627685547 -89.83000183105469,-24.698999404907227 -85.56500244140625,-8.687000274658203 C-76.02300262451172,27.128000259399414 29.530000686645508,96.85399627685547 29.530000686645508,96.85399627685547z"></path>
        </g>
      </g>
      <g transform="matrix(0.9874252676963806,0.1580865979194641,-0.1580865979194641,0.9874252676963806,1289.2559814453125,550.9074096679688)" opacity="1" style="display: block;">
        <g opacity="1" transform="matrix(1,0,0,1,98.53500366210938,111.57099914550781)">
          <path fill="rgb(249,184,167)" fill-opacity="1" d=" M-43.74399948120117,-47.13999938964844 C-45.30099868774414,-47.70199966430664 -56.23699951171875,32.91299819946289 -35.48699951171875,55.09400177001953 C-14.734999656677246,77.2760009765625 25.69300079345703,84.53700256347656 40.19499969482422,67.06700134277344 C56.23699951171875,47.744998931884766 55.430999755859375,-38.900001525878906 23.16900062561035,-61.71699905395508 C-9.093999862670898,-84.53600311279297 -43.74399948120117,-47.13999938964844 -43.74399948120117,-47.13999938964844z"></path>
        </g>
        <g opacity="1" transform="matrix(1,0,0,1,71.96900177001953,95.13500213623047)">
          <path fill="rgb(48,80,116)" fill-opacity="1" d=" M37.45100021362305,-88.40499877929688 C12.517000198364258,-83.35600280761719 -3.638000011444092,-68.21700286865234 -9.572999954223633,-61.76300048828125 C-20.895999908447266,-60.441001892089844 -36.28499984741211,-54.22100067138672 -52.17599868774414,-28.084999084472656 C-71.72000122070312,4.054999828338623 -57.28799819946289,39.66299819946289 -34.54100036621094,57.13399887084961 C-11.793000221252441,74.60099792480469 -12.050999641418457,94.88500213623047 -12.050999641418457,94.88500213623047 C-12.050999641418457,94.88500213623047 26.490999221801758,75.10399627685547 22.75,44.632999420166016 C21.18000030517578,31.844999313354492 15.633999824523926,28.94499969482422 19.790000915527344,18.930999755859375 C24.104999542236328,8.53600025177002 20.878000259399414,-7.623000144958496 21.679000854492188,-21.658000946044922 C21.679000854492188,-21.658000946044922 23.993000030517578,-30.506000518798828 23.993000030517578,-30.506000518798828 C23.993000030517578,-30.506000518798828 40.13399887084961,-42.98400115966797 55.926998138427734,-39.465999603271484 C71.72000122070312,-35.94499969482422 69.447998046875,-94.88500213623047 37.45100021362305,-88.40499877929688z"></path>
        </g>
        <g opacity="1" transform="matrix(1,0,0,1,86.13800048828125,122.46800231933594)">
          <path fill="rgb(249,184,167)" fill-opacity="1" d=" M11.942000389099121,0 C12.107000350952148,9.836000442504883 10.107999801635742,17.71299934387207 4.390999794006348,17.809999465942383 C-1.3259999752044678,17.909000396728516 -2.937999963760376,14.053999900817871 -7.670000076293945,0.17399999499320984 C-12.105999946594238,-12.83899974822998 -6.718999862670898,-17.714000701904297 -1.003000020980835,-17.809999465942383 C4.7129998207092285,-17.909000396728516 11.776000022888184,-9.833000183105469 11.942000389099121,0z"></path>
        </g>
      </g>
    </g>
  </g>
</svg>