<svg width="24" height="24" viewBox="0 0 24 24" fill="#ffffff" xmlns="http://www.w3.org/2000/svg">
<path d="M10.0378 16.0625H9.95152L9.97843 16.1445C10.4062 17.4475 11.0757 18.6583 11.9519 19.7134L12 19.7713L12.0481 19.7134C12.9243 18.6583 13.5938 17.4475 14.0216 16.1445L14.0485 16.0625H13.9622H10.0378ZM9.44531 13.8838L9.45292 13.9375H9.50719H14.4928H14.5471L14.5547 13.8838C14.7318 12.6342 14.7318 11.3658 14.5547 10.1162L14.5471 10.0625H14.4928H9.50719H9.45292L9.44531 10.1162C9.26824 11.3658 9.26824 12.6342 9.44531 13.8838ZM4.35282 10.0625H4.30386L4.29214 10.11C4.13958 10.7284 4.06248 11.3631 4.0625 12C4.06248 12.6369 4.13958 13.2716 4.29214 13.89L4.30386 13.9375H4.35282H7.23938H7.31L7.30142 13.8674C7.14953 12.6271 7.14953 11.3729 7.30142 10.1326L7.31 10.0625H7.23938H4.35282ZM13.9622 7.9375H14.0485L14.0216 7.85551C13.5938 6.55245 12.9243 5.3417 12.0481 4.28663L12 4.22874L11.9519 4.28663C11.0757 5.3417 10.4062 6.55245 9.97843 7.85551L9.95152 7.9375H10.0378H13.9622ZM16.7606 10.0625H16.69L16.6986 10.1326C16.8505 11.3729 16.8505 12.6271 16.6986 13.8674L16.69 13.9375H16.7606H19.6472H19.6961L19.7079 13.89C20.014 12.6486 20.014 11.3514 19.7079 10.11L19.6961 10.0625H19.6472H16.7606ZM18.705 7.9375H18.8171L18.7582 7.84216C17.8788 6.41824 16.5742 5.30666 15.0287 4.66447L14.8604 4.59456L14.9503 4.75303C15.5113 5.74192 15.9486 6.79606 16.2523 7.89169L16.265 7.9375H16.3125H18.705ZM9.05432 4.7531L9.1445 4.59464L8.97607 4.66445C7.42885 5.3058 6.12248 6.41746 5.24184 7.84214L5.18289 7.9375H5.295H7.6875H7.73498L7.74771 7.89177C8.05287 6.79591 8.49171 5.74177 9.05432 4.7531ZM5.295 16.0625H5.18289L5.24184 16.1579C6.12248 17.5825 7.42885 18.6942 8.97607 19.3355L9.1445 19.4054L9.05432 19.2469C8.49171 18.2582 8.05287 17.2041 7.74771 16.1082L7.73498 16.0625H7.6875H5.295ZM14.9503 19.247L14.8604 19.4054L15.0287 19.3355C16.5742 18.6933 17.8788 17.5818 18.7582 16.1578L18.8171 16.0625H18.705H16.3125H16.265L16.2523 16.1083C15.9486 17.2039 15.5113 18.2581 14.9503 19.247ZM6.40958 3.63334C8.06434 2.52766 10.0098 1.93751 12 1.9375C14.6678 1.94047 17.2255 3.00158 19.112 4.88803C20.9984 6.77448 22.0595 9.33222 22.0625 12.0001C22.0625 13.9902 21.4723 15.9357 20.3667 17.5904C19.261 19.2452 17.6894 20.5349 15.8508 21.2965C14.0121 22.0581 11.9888 22.2574 10.0369 21.8692C8.08497 21.4809 6.29201 20.5225 4.88474 19.1153C3.47748 17.708 2.51912 15.915 2.13085 13.9631C1.74259 12.0112 1.94186 9.98793 2.70347 8.14925C3.46507 6.31057 4.75481 4.73902 6.40958 3.63334Z" fill="white" stroke="white" stroke-width="0.125"/>
</svg>
