<svg id="Layer_1" data-name="Layer 1" xmlns="http://www.w3.org/2000/svg" viewBox="0 0 696.48 67.99"><title>Givenchy logotype logo - Brandlogos.net</title><g id="Layer_2" data-name="Layer 2"><g id="Layer_1-2" data-name="Layer 1-2"><path d="M102.12,369.55V357.76s-30-17.46-54.58,0a35.45,35.45,0,0,0-11.78,26.67c0,17.37,13.64,26.67,13.64,26.67s22.09,15.5,53.72,0V381.33H68.94v11.16H90.72v11.16S50,418,50.65,384c0,0-1.86-18.81,18.3-21.29C68.94,362.72,82.28,359,102.12,369.55Z" transform="translate(-35.76 -350)" style="fill:#231f20"/><rect x="106.67" y="0.04" width="12.4" height="67.95" style="fill:#231f20"/><polygon points="150.71 0.04 164.97 0.04 185.44 49.31 206.53 0.04 221.41 0.04 191.02 66.44 179.86 66.44 150.71 0.04" style="fill:#231f20"/><polygon points="251.18 0.04 251.18 67.99 306.38 67.99 306.38 55.51 264.82 55.51 264.82 39.39 293.97 39.39 293.97 28.85 264.82 28.85 264.82 12.72 306.38 12.72 306.38 0.04 251.18 0.04" style="fill:#231f20"/><polygon points="342.35 66.44 355.37 66.44 355.37 22.64 395.69 66.44 406.85 66.44 406.85 0.04 394.44 0.04 394.44 45.59 353.13 0.04 342.35 0.04 342.35 66.44" style="fill:#231f20"/><path d="M537.5,371.41s-4.34-8.68-26-9.3c0,0-26.67-.21-25.43,21.91s25.72,20.88,25.72,20.88,22.66-.62,25.76-8.06v14s-5,5.58-25.76,7.13c0,0-39.36,1.17-39.36-31.08,0,0-2.48-37.76,36.59-36.87,0,0,21.71-.34,28.53,5.86Z" transform="translate(-35.76 -350)" style="fill:#231f20"/><polygon points="537.09 0.04 550.73 0.04 550.73 28.23 586.08 28.23 586.08 0.04 599.11 0.04 599.11 66.44 586.71 66.44 586.71 40.01 550.11 40.01 550.11 66.44 537.09 66.44 537.09 0.04" style="fill:#231f20"/><polygon points="651.83 39.39 651.83 66.44 665.47 66.44 665.47 39.39 696.48 0.04 680.35 0.04 658.65 27.61 638.18 0.04 621.43 0.04 651.83 39.39" style="fill:#231f20"/></g></g></svg>