<svg xmlns="http://www.w3.org/2000/svg" width="317.87" height="133" viewBox="0 0 317.87 133"><title>Hennessy logo - Brandlogos.net</title><path d="M498.21,512c1-3.65,3.58-6.25,7-9.47a10.22,10.22,0,0,1-2.25.27c-1.51,0-3.07-.61-4.16.14-.59.47-.74.13-.16-.46a4.15,4.15,0,0,1,2.35-1.27c1.13-.11,2,.26,3.26.21a8.11,8.11,0,0,0,2.72-.5c.27.06-.05.34-.91,1.33-3.23,3.51-4.31,4.56-5,7.67a1.13,1.13,0,0,1-.33.5l-1.94,1.74c-.48.43-.79.45-.61-.18m31.81-18a6.8,6.8,0,0,1,4.41-.11c1.3.46,2.69,1.87,1.93,3.34a2.12,2.12,0,0,1-2.81.72c-1.27-.53-3.36-3.73-3.53-3.95m-10.33-4h0c-2.14.58-3.3-.36-5-1a9.35,9.35,0,0,0-3.78-.71c-4.34.19-6.88-1-12.1-4.94a24.55,24.55,0,0,0-8-4.22,9.37,9.37,0,0,1,3.51-.81c7.71-.45,12.76,6.72,26.45,11.46a8,8,0,0,0-1.09.25M538.15,498c.76-1.38.35-3.58-1.86-4.74a8,8,0,0,0-6.76-.07,9,9,0,0,0-5.13-3.46c-11-3.4-15.65-9.22-22.94-12.2a24.12,24.12,0,0,0-4.88-1.38,26.74,26.74,0,0,0,4-4.44,19.31,19.31,0,0,1,4.88-4.6l.91-.56c.86.55,2.13-.39,1.26-1.58-.68-.89-3.64-2.83-5.27-2.83a11.76,11.76,0,0,1,3,3.17,39.94,39.94,0,0,0-10.92,6.6c-3.52,3-4.26,5.53-8.74,6.8,2.64,3.89,8.66,8.44,11.06,9.81a5.1,5.1,0,0,0-2.18,2,7.25,7.25,0,0,0-4-.92,5.9,5.9,0,0,0-5.27,3.38,8.93,8.93,0,0,0-3-.56c-3.52,0-4.81,2.37-4.81,4a3.5,3.5,0,0,0,2.59,3.39,4,4,0,0,0,4.46-1.42c.19-.28,0-.35-.23-.16-1.86,1.38-4.33.44-4.33-1.32a2.06,2.06,0,0,1,2.21-1.94c2.83,0,5.45,3.67,9.81,2.89a4.59,4.59,0,0,0,3.46-2.33c.1-.19-.1-.28-.25-.13-1.15,1.12-2.95.84-4.87,0-2.14-.88-2.11-1.12-4.22-2.13a4.29,4.29,0,0,1,3.23-1.73c2.1-.19,3.85,1.21,5.46,2.22s4.11,3.07,7.31,2.68a4.68,4.68,0,0,0,3.61-2.14c.11-.18-.08-.28-.25-.14-1.23,1.06-3,.67-4.87-.22-2.07-1-4.77-2.71-5.29-3a4.32,4.32,0,0,1,4.23-1.43c2.16.28,3.86,1.67,5.42,3s4,3.74,7,3.74a4.91,4.91,0,0,0,3.91-1.65c.14-.17,0-.29-.22-.17-1.38.89-3.07.28-4.78-.84a42,42,0,0,1-4-3.17,4.09,4.09,0,0,1,3.23-1.08c2.46.11,4.47,2.25,5.95,3.76s3.16,3.87,6.37,4.18a5,5,0,0,0,4.08-1.3c.16-.15,0-.29-.2-.19-1.48.76-3.17.08-4.66-1.26s-3.16-3.07-3.21-3.12a4.49,4.49,0,0,1,4.48-.62c1.85.68,2.78,2,4.12,3.75a24.23,24.23,0,0,0,4.12,4.47c3,2.11,6,.8,7-1m-44,5.37a3.59,3.59,0,0,1-1,.15c-.54,0-.64-.18-.15-.34a9.11,9.11,0,0,0,3-2.05c.52-.52.61-.28.37.48-.16.49-1.28,4.38-1.28,4.38-.3,1-1,1.55-2.14,2.43a4.18,4.18,0,0,1,2.25-.23,1.94,1.94,0,0,0,1.06-.16c.44-.18.51,0,.24.22-.95.85-1.29,1.21-2.43,1.2a9,9,0,0,0-2.66,0c-.52.16-.57,0-.24-.27,1.55-1.39,1.5-1,3-5.79m26.65,7.17a3.35,3.35,0,0,0,1.11-2.65,1.58,1.58,0,0,0-1.33-1.64,2.62,2.62,0,0,0-2,.6c-.2.14-.41.35-.56.29s0-.39.18-.8.45-1.52.77-2.6a2.33,2.33,0,0,1,.76-1.27c.83-.79,1.25-1.21,1.84-1.24s.91.13,1.69.14a3.69,3.69,0,0,0,1.82-.31c.21-.1.34-.21.42-.15s-.61.91-1.13,1.24a3.28,3.28,0,0,1-1.87.51,10,10,0,0,1-2-.22.2.2,0,0,0-.22.15c-.27.78-.55,1.74-.83,2.7a3.2,3.2,0,0,1,1.55-.43,2.26,2.26,0,0,1,2.5,2.42c0,1.35-1.14,2.7-2.29,3.56a6.65,6.65,0,0,1-3.81,1.57,2.21,2.21,0,0,1-1.7-.57.49.49,0,0,1-.07-.25,1.1,1.1,0,0,1,.59-.93c.2-.05.32,0,.48.18a2.81,2.81,0,0,0,1.36.54,3.71,3.71,0,0,0,2.8-.84m-4.37-11.24c0,.06,0,.14-.22.18-3.85.64-6.68,3.54-6.68,6.33,0,1.33.85,2.77,2.17,2.77,2.33,0,3-4.5.93-4.58a2.3,2.3,0,0,0-1.41.43c-.43.29-.9.36-.3-.26,1.48-1.53,2.49-2,3.69-1.1,1.37,1.08.56,3.58-.86,5a4.69,4.69,0,0,1-3,1.46c-2.39,0-3.53-2-3-4.27.69-3.08,3.62-4.93,6.81-5.78,1.29-.35,1.86-.27,1.91-.14M480.3,463.48c-.24-1-.17-1.38.23-1.58.21-.11.54,0,.65.39l.14.57c.08.31.13.42.31.4s.82-.8,1.84-1c0,0,2.6-.47,6.51-1.24.58-.11.55-.79.82-1.09s.53-.07.64.34c0,.13.09.42.13.57.08.31.13.42.31.4s.82-.8,1.83-1l11.94-2.33a8.47,8.47,0,0,1,.55-2.4.17.17,0,0,1,.31.06c0,.89.21,1.77.73,1.81s.37-.11.8-.13.21.24.76.16c.4-.05.26-.24.77-.33.27,0,.38.14.85.06.31-.05.33-.26.81-.33s.47,0,.84,0a.71.71,0,0,0,.58-.41c.35-.6.18-1.32.31-2.11.16-.95.63-1.59,1.28-1.72a5.07,5.07,0,0,0-.54,3.07,3.43,3.43,0,0,1-1.81,3.61,17.5,17.5,0,0,0-2.43.6,2,2,0,0,0-.88.77c-.08.07-.24.06-.27,0a1.31,1.31,0,0,0-1.36-1c-.85.16-2.24.44-2.24.44l-12.35,2.41c-.34.07-.41.31-.34.59s-.11.68-.42.55-.73-.85-1.31-.74l-8.21,1.59c-.34.07-.4.31-.33.59s-.18.63-.41.6c-.39,0-.78-1.19-1-2.19M515.46,456c-1.11-2-.54-3.06-.5-2.93a4.71,4.71,0,0,0,1.42,2.07,4.65,4.65,0,0,1,.4.63l8.41-1.64c.56-.1.9,1.76.47,1.85-.66.14-6.26,1.21-8.54,1.64-.41,3.89-3.66,5.8-6.8,6.69a20.47,20.47,0,0,1-2.8.53,14.76,14.76,0,0,1-1.7-3.81,5.89,5.89,0,0,0,2.66,1.18,7.74,7.74,0,0,0,4.82-1c2.74-1.91,2.59-4.53,2.16-5.23M527,450.9c-.05.07-.17.33.27.56l.29.15c.24.14.27.22.11.45l-.19.25c-.1.13-.08.13-.19.28s-.24.25-.5.1l-.27-.17-.33-.17c-.25-.14-.28-.21-.11-.45s.1-.12.19-.25c.3-.41.07-.57,0-.62s-.32-.18-.63.25c-.09.12-.08.13-.17.26s-.25.24-.5.1l-.31-.2-.28-.15c-.25-.14-.27-.22-.11-.45s.11-.14.21-.27l.18-.26c.15-.22.24-.24.5-.1l.28.18c.41.26.64,0,.68,0s.16-.33-.27-.55l-.29-.15c-.25-.14-.28-.22-.11-.45l.19-.25c.1-.13.08-.13.19-.28s.24-.25.5-.1l.27.17.33.18c.24.14.27.22.11.45s-.11.12-.19.25c-.3.48,0,.62,0,.62s.27.19.63-.25c.1-.12.08-.14.17-.26s.22-.25.5-.09.18.11.31.19l.28.15c.24.14.27.22.11.45s-.11.14-.21.27l-.18.26c-.15.21-.25.24-.5.1l-.28-.18c-.41-.26-.63-.06-.68,0m-8.18.21a11.06,11.06,0,0,1,6.07-4.92,13.33,13.33,0,0,1,7.68-.25c1.23.34,5.32,1.8,2.72,2.81-2.21.86-4.39,1.88-4.57,4.61-.1,1.53.56,1.9,1.7,2.34.24-.4.31-.44.54-.85a4,4,0,0,1-.66-1c0-.07,0-.15.12-.11l1.6.78c.18.09.12.19,0,.31a15.89,15.89,0,0,0-1,1.69c-.28.63-.34.47-.91.19s-1-.44-1.36-.64a5.41,5.41,0,0,0-1.87,4c0,.07-.12.07-.14,0a4.36,4.36,0,0,1,.85-4.85,5.63,5.63,0,0,1,2.34-7c-3.59-1.74-9-.93-11.42,2.29a3,3,0,0,1,1.34.94c0,.06,0,.13-.08.1a6.86,6.86,0,0,0-2.66-.17c-.35.06-.56,0-.34-.39m-33.32,22.45c-.87,1.15-1.38,1.7-1.2,2.59,0,.1-.07.15-.13.06a2.83,2.83,0,0,1-.33-1.81c.25-1.93,2.66-4.24,3.55-5a1.5,1.5,0,0,1,1.5-.3,14.14,14.14,0,0,1,5.7-3c.08,0,.11.06.05.1a43.21,43.21,0,0,0-5.19,4.95,1.53,1.53,0,0,1-1.61.16,9.26,9.26,0,0,0-2.34,2.24m63.33,51.83c7.18-.3,7.78,8.42,7.77,10.18,0,1.41-.35,2.45-2.23,2.45H541.08s-.28-12.29,7.77-12.63M543.53,540l22.34,0c0-3-1.82-15.9-16.35-15.9-8.63,0-18.31,6.42-18.31,21.16,0,11.68,8,19.1,16.57,19.41,15.73.57,17.09-13.85,17.09-13.85h-.54s-3.49,8-12.62,7.6c-10.23-.46-11.26-10.8-11.16-15.77a2.85,2.85,0,0,1,3-2.62m123-6.56,0-.07c-5.12,12.49-14.44,35.23-15.15,37a12.74,12.74,0,0,1-10.14,8.07,16.35,16.35,0,0,1-5.69-.34l2.35-5.71c5.51,1.87,9.44.36,10.88-2.17a9.9,9.9,0,0,0,.24-8.42L636.46,532h0c-2.2-5.24-3.86-6.71-3.86-6.71h11.85a32.91,32.91,0,0,0,1.21,5.25l9.69,24.21,8.69-21.3c2.18-5.54,2-8.16,2-8.16h4.87a40.88,40.88,0,0,0-4.46,8.16m-37.82,11.49a9.65,9.65,0,0,1,3.27,8.14c-.3,4.33-3.87,10.81-14.85,11.26a30.88,30.88,0,0,1-13.78-2.47v-7.95s7,9.48,16,8.2c4.28-.61,5.94-2.79,6.08-5.31.28-5.22-6-8.25-9.86-10.27-9.21-4.78-11.94-7.61-12.11-11.71-.37-8.85,9.36-10.53,13-10.69a32.89,32.89,0,0,1,11.17,1.19l.45,7c-.84-1.62-7-8-13.79-6.34-3.19.77-4,3-3.89,4.62.24,3.6,3.62,5.87,8,8.15,4.8,2.51,8.39,4.29,10.34,6.13m-32.55,0a9.66,9.66,0,0,1,3.27,8.14c-.3,4.33-3.87,10.81-14.85,11.26a30.88,30.88,0,0,1-13.78-2.47v-7.95s7,9.48,16,8.2c4.28-.61,5.94-2.79,6.08-5.31.28-5.22-6-8.25-9.86-10.27-9.21-4.78-11.94-7.61-12.11-11.71-.37-8.85,9.36-10.53,13-10.69A32.91,32.91,0,0,1,595,525.32l.45,7c-.84-1.62-7-8-13.79-6.34-3.19.77-4,3-3.89,4.62.24,3.6,3.62,5.87,8,8.15,4.8,2.51,8.39,4.29,10.34,6.13m-71.22,13a13.06,13.06,0,0,0,1.41,6.23H515a13.06,13.06,0,0,0,1.4-6.07V538c0-6-2.11-8.5-6.33-9.17-5-.79-10.53,1.86-10.53,8.69v20.41a13.08,13.08,0,0,0,1.4,6.23H489.72a13.08,13.08,0,0,0,1.4-6.23V533.05a6.11,6.11,0,0,0-2-4.52s5.94-.9,10.17-3.86h.32v6l2.41-2.16c5.61-5,12.82-5.48,17.32-2.63a11.84,11.84,0,0,1,5.55,10.39ZM400.81,515.1v43.34a12.84,12.84,0,0,0,1.39,5.72H389.39a13,13,0,0,0,1.4-6V535.32H364.48V558a13,13,0,0,0,1.4,6.13H353.06a12.79,12.79,0,0,0,1.39-5.6V515a12.76,12.76,0,0,0-1.39-5.6h12.81a13,13,0,0,0-1.4,6.13v17.34l26.31,0V515.35a13,13,0,0,0-1.4-6H402.2a12.84,12.84,0,0,0-1.39,5.72m80.42,42.83a13.08,13.08,0,0,0,1.4,6.23H471.37a13,13,0,0,0,1.4-6.07V538c0-6-2.11-8.5-6.33-9.17-5-.79-10.53,1.86-10.53,8.69v20.41a13.08,13.08,0,0,0,1.4,6.23H446.06a13.08,13.08,0,0,0,1.4-6.23V533.05a6.11,6.11,0,0,0-2-4.52s5.95-.9,10.17-3.86h.32v6l2.41-2.16c5.61-5,12.82-5.48,17.32-2.63a11.84,11.84,0,0,1,5.55,10.39ZM424.79,525.4c7.18-.3,7.78,8.42,7.77,10.18,0,1.41-.35,2.45-2.23,2.45H417s-.28-12.29,7.77-12.63M419.46,540l22.34,0c0-3-1.82-15.9-16.35-15.9-8.63,0-18.31,6.42-18.31,21.16,0,11.68,8,19.1,16.57,19.41,15.72.57,17.09-13.85,17.09-13.85h-.54s-3.5,8-12.62,7.6c-10.23-.46-11.26-10.8-11.16-15.77a2.85,2.85,0,0,1,3-2.62" transform="translate(-353.06 -445.5)" style="fill:#271e1b"/></svg>